<?xml version="1.0" encoding="utf-8"?>
<svg viewBox="0 0 500 500" fill="#fff" xmlns="http://www.w3.org/2000/svg">
  <path fill-rule="evenodd" d="M 437.5 63.25 L 62.5 63.25 C 45.25 63.25 31.25 77.25 31.25 94.5 L 31.25 407 C 31.25 424.25 45.25 438.25 62.5 438.25 L 437.5 438.25 C 454.75 438.25 468.75 424.25 468.75 407 L 468.75 94.5 C 468.75 77.25 454.75 63.25 437.5 63.25 Z M 62.5 32 C 27.969 32 0 59.969 0 94.5 L 0 407 C 0 441.5 27.969 469.5 62.5 469.5 L 437.5 469.5 C 472.031 469.5 500 441.5 500 407 L 500 94.5 C 500 59.969 472.031 32 437.5 32 L 62.5 32 Z"/>
  <path fill-rule="evenodd" d="M 233.131 471.079 L 233.045 30.421 L 264.295 30.421 L 264.381 471.079 L 233.131 471.079 Z" style="" transform="matrix(0, 1, -1, 0, 499.463028, 2.037004)"/>
</svg>