<svg xmlns="http://www.w3.org/2000/svg" height="18" viewBox="0 0 18 18" width="18">
  <defs>
    <style>
      .a {
        fill: #fff;
      }
    </style>
  </defs>
  <title>S Branch1 18 N</title>
  <rect id="Canvas" fill="#ff13dc" opacity="0" width="18" height="18" /><path class="a" d="M14,9a2.981,2.981,0,0,0-2.304,1.1L6.92,7.6665a3.0335,3.0335,0,1,0-.673,1.3l4.811,2.45A3,3,0,1,0,14,9Zm0,4.5A1.5,1.5,0,1,1,15.5,12,1.5,1.5,0,0,1,14,13.5Z" />
  <path fill="red" d="M4.05,13.5A4.45,4.45,0,1,0,8.5,9.05,4.45,4.45,0,0,0,4.05,13.5ZM6,13.25A.25.25,0,0,1,6.25,13h4.5a.25.25,0,0,1,.25.25v.5a.25.25,0,0,1-.25.25H6.25A.25.25,0,0,1,6,13.75Z" />
</svg>