<svg focusable="false" height="24px" preserveaspectratio="xMidYMid meet" style="pointer-events: none; display: block; width: 100%; height: 100%;" version="1.1" viewbox="0 0 24 24" width="24px" xmlns="http://www.w3.org/2000/svg">
 <g>
    <defs>
        <linearGradient id="grad1" x1="0%" y1="0%" x2="0%" y2="100%">
            <stop offset="0%" style="stop-color: #ff5e5e;" />
            <stop offset="14%" style="stop-color: #f55351;" />
            <stop offset="28%" style="stop-color: #ea4845;" />
            <stop offset="42%" style="stop-color: #e03d38;" />
            <stop offset="57%" style="stop-color: #d5322c;" />
            <stop offset="71%" style="stop-color: #ca261f;" />
            <stop offset="85%" style="stop-color: #bf1711;" />
            <stop offset="100%" style="stop-color: #b40101;" />           
          </linearGradient>
    </defs>
  <path d="M19.43 12.98c.04-.32.07-.64.07-.98s-.03-.66-.07-.98l2.11-1.65c.19-.15.24-.42.12-.64l-2-3.46c-.12-.22-.39-.3-.61-.22l-2.49 1c-.52-.4-1.08-.73-1.69-.98l-.38-2.65C14.46 2.18 14.25 2 14 2h-4c-.25 0-.46.18-.49.42l-.38 2.65c-.61.25-1.17.59-1.69.98l-2.49-1c-.23-.09-.49 0-.61.22l-2 3.46c-.13.22-.07.49.12.64l2.11 1.65c-.04.32-.07.65-.07.98s.03.66.07.98l-2.11 1.65c-.19.15-.24.42-.12.64l2 3.46c.12.22.39.3.61.22l2.49-1c.52.4 1.08.73 1.69.98l.38 2.65c.03.24.24.42.49.42h4c.25 0 .46-.18.49-.42l.38-2.65c.61-.25 1.17-.59 1.69-.98l2.49 1c.23.09.49 0 .61-.22l2-3.46c.12-.22.07-.49-.12-.64l-2.11-1.65zM12 15.5c-1.93 0-3.5-1.57-3.5-3.5s1.57-3.5 3.5-3.5 3.5 1.57 3.5 3.5-1.57 3.5-3.5 3.5z" fill="url(#grad1)">
  </path>
 </g> 
</svg>