<svg id="Layer_1" data-name="Layer 1" xmlns="http://www.w3.org/2000/svg" viewBox="0 0 115.64 58.62"><title>url</title><path fill="#fff" d="M7.29,0H94.71a7.27,7.27,0,0,1,5.15,2.15h0A7.28,7.28,0,0,1,102,7.29V22.66l-4.8-3.29V7.29a2.51,2.51,0,0,0-.73-1.76h0a2.48,2.48,0,0,0-1.76-.73H7.29A2.49,2.49,0,0,0,4.8,7.29V31.11a2.48,2.48,0,0,0,.64,1.67l.09.09a2.51,2.51,0,0,0,1.76.73H80.84l.37,4.8H7.29a7.28,7.28,0,0,1-5.15-2.14L2,36.1a7.28,7.28,0,0,1-2-5V7.29A7.31,7.31,0,0,1,7.29,0Zm98.18,58.45a1.85,1.85,0,0,1-1.22.11,1.71,1.71,0,0,1-1-.79L98.81,50.2l-4.18,4.69a5.3,5.3,0,0,1-1.88,1.4,2.39,2.39,0,0,1-1.43.16,1.88,1.88,0,0,1-1.24-.89A3.48,3.48,0,0,1,89.62,54L87.29,23.66v-.07a1.17,1.17,0,0,1,1.77-1.07.6.6,0,0,1,.15.09l25,17.14A3.48,3.48,0,0,1,115.4,41a1.9,1.9,0,0,1,.15,1.52,2.49,2.49,0,0,1-.86,1.15c-1.44,1.13-6.72,1.87-8.3,2.2l4.36,7.59a1.74,1.74,0,0,1,.16,1.3,1.82,1.82,0,0,1-.77,1l0,0-4.52,2.61-.1.05ZM13.61,27,11.75,11.44H17.2L18,21.17h.42l1.06-9.51h6l1.18,9.51H27l.47-9.73H33L31.25,27h-8l-.78-9.78-.23,0-.8,9.8Zm22.62,0L34.36,11.44h5.45l.76,9.73H41l1.07-9.51h6l1.18,9.51h.42l.47-9.73h5.5L53.86,27h-8l-.78-9.78-.24,0L44,27Zm22.61,0L57,11.44h5.45l.76,9.73h.42l1.07-9.51h6l1.18,9.51h.42l.48-9.73h5.5L76.47,27h-8l-.78-9.78-.24,0-.8,9.8Z"/></svg>