<?xml version="1.0" encoding="utf-8"?>
<svg viewBox="0 0 500 500" xmlns="http://www.w3.org/2000/svg">
  <defs>
    <linearGradient gradientUnits="userSpaceOnUse" x1="74.043" y1="-628.028" x2="74.043" y2="937.972" id="gradient-1" gradientTransform="matrix(0.270662, -0.00039, 0.000217, 0.149276, 231.058931, 318.22572)">
      <stop offset="0" style="stop-color: rgb(235, 95, 52);"/>
      <stop offset="1" style="stop-color: rgb(235, 204, 52);"/>
    </linearGradient>
    <linearGradient gradientUnits="userSpaceOnUse" x1="1051.5" y1="233" x2="1051.5" y2="1799" id="gradient-0" gradientTransform="matrix(0.270662, 0, -0.000788, 0.270662, -31.927155, -28.703392)">
      <stop offset="0" style="stop-color: #bada55"/>
      <stop offset="1" style="stop-color: #758d29"/>
    </linearGradient>
  </defs>
  <path d="M 139.879 456.317 L 141.089 40.579 L 245.022 40.579 L 243.815 456.317 L 139.879 456.317 Z M 175.632 75.224 L 174.625 421.671 L 209.269 421.671 L 210.277 75.224 L 175.632 75.224 Z M 1.299 456.317 L 2.51 40.579 L 106.445 40.579 L 105.235 456.317 L 1.299 456.317 Z M 37.052 75.224 L 36.046 421.671 L 70.69 421.671 L 71.698 75.224 L 37.052 75.224 Z M 371.44 34.353 L 501.299 426.813 L 407.559 458.211 L 277.7 65.751 L 371.44 34.353 Z M 316.079 84.699 L 426.617 419.778 L 462.92 407.868 L 352.111 72.789 L 316.079 84.699 Z" style="stroke: url(#gradient-0); fill: url(#gradient-1); fill-rule: nonzero;" transform="matrix(0.999999, 0.001411, -0.001411, 0.999999, 0.347754, -0.354338)"/>
</svg>