<?xml version="1.0" encoding="utf-8"?>
<svg viewBox="0 0 500 500" xmlns="http://www.w3.org/2000/svg">
  <defs>
    <linearGradient gradientUnits="userSpaceOnUse" x1="250" y1="0" x2="250" y2="500" id="gradient-0" gradientTransform="matrix(1, 0, 0, 1.059807, 0.000149, 60.979068)">
      <stop offset="0" style="stop-color: rgb(161, 31, 83);"/>
      <stop offset="1" style="stop-color: rgb(235, 95, 52);"/>
    </linearGradient>
  </defs>
  <path d="M 250 104.167 C 270.182 104.167 289.063 107.964 306.641 115.56 C 324.219 123.155 339.735 133.572 353.19 146.81 C 366.645 160.048 377.062 175.456 384.44 193.034 C 391.819 210.612 395.616 229.601 395.833 250 C 395.833 270.182 392.035 289.063 384.44 306.641 C 376.845 324.219 366.428 339.735 353.19 353.19 C 339.952 366.645 324.544 377.062 306.966 384.44 C 289.388 391.818 270.399 395.616 250 395.833 C 229.818 395.833 210.938 392.035 193.359 384.44 C 175.781 376.844 160.265 366.428 146.81 353.19 C 133.355 339.952 122.938 324.544 115.56 306.966 C 108.181 289.388 104.384 270.399 104.167 250 C 104.167 229.818 107.965 210.938 115.56 193.359 C 123.155 175.781 133.572 160.265 146.81 146.81 C 160.048 133.355 175.456 122.938 193.034 115.56 C 210.612 108.181 229.601 104.383 250 104.167 Z M 250 354.167 C 264.323 354.167 277.778 351.454 290.365 346.029 C 302.952 340.603 313.91 333.225 323.242 323.893 C 332.574 314.562 340.061 303.494 345.703 290.69 C 351.345 277.886 354.167 264.323 354.167 250 C 354.167 235.677 351.454 222.222 346.029 209.635 C 340.603 197.049 333.116 186.089 323.568 176.758 C 314.019 167.426 302.952 159.939 290.365 154.297 C 277.778 148.654 264.323 145.833 250 145.833 C 235.677 145.833 222.222 148.546 209.635 153.971 C 197.049 159.396 185.981 166.883 176.432 176.432 C 166.884 185.981 159.397 197.049 153.971 209.635 C 148.546 222.222 145.833 235.677 145.833 250 C 145.833 264.323 148.546 277.778 153.971 290.365 C 159.397 302.951 166.775 314.019 176.107 323.568 C 185.438 333.116 196.506 340.603 209.31 346.029 C 222.114 351.454 235.677 354.167 250 354.167 Z M 270.833 62.5 L 229.167 62.5 L 229.167 0 L 270.833 0 L 270.833 62.5 Z M 102.539 132.161 L 58.594 87.891 L 87.891 58.594 L 132.161 102.539 L 102.539 132.161 Z M 62.5 270.833 L 0 270.833 L 0 229.167 L 62.5 229.167 L 62.5 270.833 Z M 102.539 367.839 L 132.161 397.461 L 87.891 441.406 L 58.594 412.109 L 102.539 367.839 Z M 229.167 437.5 L 270.833 437.5 L 270.833 500 L 229.167 500 L 229.167 437.5 Z M 397.461 367.839 L 441.406 412.109 L 412.109 441.406 L 367.839 397.461 L 397.461 367.839 Z M 500 229.167 L 500 270.833 L 437.5 270.833 L 437.5 229.167 L 500 229.167 Z M 397.461 132.161 L 367.839 102.539 L 412.109 58.594 L 441.406 87.891 L 397.461 132.161 Z" style="fill: url(#gradient-0);"/>
</svg>