<?xml version="1.0" encoding="utf-8"?>
<svg viewBox="0 0 500 500" xmlns="http://www.w3.org/2000/svg">
  <defs>
    <linearGradient gradientUnits="userSpaceOnUse" x1="256.001" y1="0" x2="256.001" y2="512" id="gradient-0" gradientTransform="matrix(0.999837, 0.018059, -0.016736, 0.926617, 7.951644, 108.751796)">
      <stop offset="0" style="stop-color: rgb(235, 95, 52);"/>
      <stop offset="1" style="stop-color: rgb(235, 204, 52);"/>
    </linearGradient>
    <linearGradient gradientUnits="userSpaceOnUse" x1="83.176" y1="132.713" x2="83.176" y2="494.723" id="gradient-1" gradientTransform="matrix(0.953124, 0.302578, -0.305898, 0.963583, 83.385778, 77.880008)">
      <stop offset="0" style="stop-color: rgb(235, 95, 52);"/>
      <stop offset="1" style="stop-color: rgb(235, 204, 52);"/>
    </linearGradient>
    <linearGradient gradientUnits="userSpaceOnUse" x1="428.825" y1="132.635" x2="428.825" y2="494.722" id="gradient-2" gradientTransform="matrix(0.987329, -0.158682, 0.158378, 0.985436, -51.826711, 169.511084)">
      <stop offset="0" style="stop-color: rgb(235, 95, 52);"/>
      <stop offset="1" style="stop-color: rgb(235, 204, 52);"/>
    </linearGradient>
  </defs>
  <g transform="matrix(0.976563, 0, 0, 0.976563, 0, -0.000004)">
    <g>
      <path d="M316.834,91.732l-1.92-4.472l0.011-0.164c-0.016-0.009-0.031-0.022-0.047-0.032L299.996,0h-87.993l-14.84,86.816 l0.003,0.036l-0.013,0.034l-0.03,0.177c-0.023,0.015-0.044,0.031-0.067,0.046l-1.851,4.274 c-0.512,1.196-51.805,127.128-51.805,268.557c0,39.122,10.904,76.273,30.705,104.608C195.174,494.705,225.027,512,256,512 s60.826-17.295,81.896-47.45c19.801-28.335,30.705-65.486,30.705-104.608C368.601,218.646,317.352,92.939,316.834,91.732z" style="fill: url(#gradient-0);"/>
    </g>
  </g>
  <g transform="matrix(0.976563, 0, 0, 0.976563, 0, -0.000004)">
    <g>
      <path d="M140.97,487.703c-24.501-35.061-37.992-80.435-37.992-127.762c0-90.359,19.641-174.267,35.479-227.228 c-16.846,15.03-33.875,32.189-49.523,51.359c-45.602,55.869-68.724,115.041-68.724,175.869c0,42.315,25.849,81.474,72.786,110.261 c16.031,9.832,33.924,18.044,53.146,24.521C144.376,492.442,142.649,490.105,140.97,487.703z" style="fill: url(#gradient-1);"/>
    </g>
  </g>
  <g transform="matrix(0.976563, 0, 0, 0.976563, 0, -0.000004)">
    <g>
      <path d="M423.066,184.071c-15.675-19.204-32.734-36.387-49.607-51.436c15.845,52.886,35.564,136.878,35.564,227.305 c0,47.326-13.493,92.7-37.992,127.762c-1.679,2.402-3.406,4.739-5.172,7.02c19.223-6.477,37.115-14.689,53.146-24.521 c46.937-28.787,72.786-67.944,72.786-110.259C491.789,299.113,468.667,239.941,423.066,184.071z" style="fill: url(#gradient-2);"/>
    </g>
  </g>
</svg>