<?xml version="1.0" encoding="utf-8"?>
<svg viewBox="0 0 500 500" xmlns="http://www.w3.org/2000/svg">
  <defs>
    <linearGradient gradientUnits="userSpaceOnUse" x1="252" y1="6" x2="252" y2="492.131" id="gradient-0" gradientTransform="matrix(0.999977, 0.006665, -0.00662, 0.993379, 1.97645, 76.24881)">
      <stop offset="0" style="stop-color: rgb(161, 31, 83);"/>
      <stop offset="1" style="stop-color: rgb(235, 95, 52);"/>
    </linearGradient>
  </defs>
  <linearGradient id="a" gradientUnits="userSpaceOnUse" x1="1385.269" y1="1856.731" x2="2323.1304" y2="918.8698" gradientTransform="matrix(0.153019, 0, 0, -0.153019, 42.000011, 491.072571)">
    <stop offset="0" stop-color="#263238"/>
    <stop offset="1" stop-opacity="0"/>
  </linearGradient>
  <path d="M 462 215.916 C 462 99.989 367.842 6 251.916 6 C 135.989 6 42 99.989 42 215.916 C 42 325.737 142.095 414.786 251.916 414.786 L 251.916 492.131 C 379.471 427.441 462 323.344 462 215.916 Z" style="fill: url(#gradient-0);"/>
  <path opacity=".2" fill="url(#a)" d="M 356.089 160.289 L 295.477 220.901 L 234.866 160.289 L 146.697 248.459 L 335.645 437.408 C 399.24 387.172 442.3 325.337 456.117 260.319 L 356.089 160.289 Z"/>
  <path d="M 267.934 160.289 L 267.934 248.459 L 317.528 248.459 L 317.528 298.053 C 339.149 298.053 356.103 270.495 356.103 242.951 L 356.103 160.289 L 267.934 160.289 Z" style="fill-opacity: 0.8;"/>
  <path d="M 146.697 160.289 L 146.697 248.459 L 196.289 248.459 L 196.289 298.053 C 217.912 298.053 234.866 270.495 234.866 242.951 L 234.866 160.289 L 146.697 160.289 Z" style="fill-opacity: 0.8;"/>
  <path opacity=".2" fill="#263238" d="M 317.528 298.053 L 317.528 300.807 C 339.149 300.807 356.103 273.249 356.103 245.706 L 356.103 242.951 C 356.089 270.495 339.149 298.053 317.528 298.053 Z M 317.528 248.459 L 267.934 248.459 L 267.934 251.214 L 317.528 251.214 L 317.528 248.459 Z M 196.289 298.053 L 198.906 300.67 C 219.274 298.574 234.866 272.133 234.866 245.706 L 234.866 242.951 C 234.866 270.495 217.927 298.053 196.289 298.053 Z M 196.289 248.459 L 146.697 248.459 L 146.697 251.214 L 196.289 251.214 L 196.289 248.459 L 196.289 248.459 Z"/>
  <path opacity=".2" fill="#FFF" d="M 251.392 8.754 C 367.029 8.754 460.784 102.509 460.784 218.146 L 460.892 218.146 C 460.892 217.243 460.953 216.295 460.953 215.392 L 460.784 215.392 C 460.784 99.755 367.029 6 251.392 6 C 135.755 6 42 99.755 42 215.392 C 42 215.836 42.031 216.249 42.031 216.693 C 42.826 101.714 136.229 8.754 251.392 8.754 Z"/>
  <path opacity=".2" fill="#263238" d="M 251.392 413.767 L 251.392 411.014 C 142.259 411.014 42.826 322.904 42.031 213.939 C 42.031 214.428 42 214.902 42 215.392 C 42 324.94 141.846 413.767 251.392 413.767 Z M 460.784 215.392 C 459.376 321.557 377.527 424.188 251.392 488.15 L 251.392 490.904 C 378.628 426.391 460.784 322.552 460.784 215.392 Z"/>
</svg>