<?xml version="1.0" encoding="utf-8"?>
<svg viewBox="0 0 500 500" xmlns="http://www.w3.org/2000/svg">
  <defs>
    <linearGradient gradientUnits="userSpaceOnUse" x1="252" y1="4.957" x2="252" y2="497.145" id="gradient-0" gradientTransform="matrix(0.999996, 0.003027, -0.001945, 0.64225, 0.9677, 177.091038)">
      <stop offset="0" style="stop-color: rgb(235, 95, 52);"/>
      <stop offset="1" style="stop-color: rgb(235, 204, 52);"/>
    </linearGradient>
  </defs>
  <rect id="Canvas" fill="#ff13dc" opacity="0" width="18" height="18" transform="matrix(1, 0, 0, 1, 233.582328, 346.135905)"/>
  <path class="a" d="M 252 4 C 155.351 4 77 82.351 77 179 C 77 275.645 252 496.188 252 496.188 C 252 496.188 427 275.645 427 179 C 427 82.351 348.65 4 252 4 Z M 252 247.907 C 199.798 247.907 167.171 191.396 193.273 146.188 C 219.374 100.979 284.627 100.979 310.727 146.188 C 316.68 156.498 319.813 168.191 319.813 180.095 C 319.813 217.546 289.453 247.907 252 247.907 Z" style="fill: url(#gradient-0);"/>
</svg>