<?xml version="1.0" encoding="utf-8"?>
<svg viewBox="0 0 500 500" xmlns="http://www.w3.org/2000/svg">
  <defs>
    <linearGradient gradientUnits="userSpaceOnUse" x1="250" y1="215" x2="250" y2="286.468" id="gradient-0" gradientTransform="matrix(0.998892, -0.047056, 0.04017, 0.852709, -8.359645, 72.140427)">
      <stop offset="0" style="stop-color: rgb(161, 31, 83);"/>
      <stop offset="1" style="stop-color: rgb(235, 95, 52);"/>
    </linearGradient>
  </defs>
  <rect id="Canvas" fill="#ff13dc" opacity="0" width="18" height="18" transform="matrix(1, 0, 0, 1, 233.582328, 346.135905)"/>
  <path d="M 35.734 215.023 C 40.756 215.023 45.406 215.953 49.684 217.813 C 53.962 219.673 57.681 222.184 60.843 225.346 C 64.005 228.508 66.609 232.321 68.655 236.785 C 70.701 241.249 71.631 245.899 71.445 250.734 C 71.445 255.756 70.515 260.406 68.655 264.684 C 66.795 268.962 64.284 272.682 61.122 275.843 C 57.96 279.005 54.147 281.609 49.684 283.655 C 45.22 285.701 40.57 286.631 35.734 286.445 C 30.712 286.445 26.062 285.515 21.785 283.655 C 17.506 281.795 13.787 279.284 10.625 276.122 C 7.463 272.961 4.859 269.148 2.813 264.684 C 0.767 260.22 -0.163 255.57 0.023 250.734 C 0.023 245.712 0.953 241.062 2.813 236.785 C 4.673 232.507 7.184 228.787 10.346 225.625 C 13.508 222.463 17.321 219.859 21.785 217.813 C 26.248 215.767 30.898 214.837 35.734 215.023 Z M 250 215.023 C 255.022 215.023 259.672 215.953 263.949 217.813 C 268.227 219.673 271.947 222.184 275.109 225.346 C 278.271 228.508 280.875 232.321 282.921 236.785 C 284.967 241.249 285.897 245.899 285.711 250.734 C 285.711 255.756 284.781 260.406 282.921 264.684 C 281.061 268.962 278.55 272.682 275.388 275.843 C 272.226 279.005 268.413 281.609 263.949 283.655 C 259.486 285.701 254.836 286.631 250 286.445 C 244.978 286.445 240.328 285.515 236.05 283.655 C 231.772 281.795 228.053 279.284 224.89 276.122 C 221.729 272.961 219.125 269.148 217.079 264.684 C 215.033 260.22 214.103 255.57 214.289 250.734 C 214.289 245.712 215.219 241.062 217.079 236.785 C 218.939 232.507 221.45 228.787 224.611 225.625 C 227.774 222.463 231.586 219.859 236.05 217.813 C 240.514 215.767 245.164 214.837 250 215.023 Z M 464.266 215.023 C 469.288 215.023 473.937 215.953 478.215 217.813 C 482.493 219.673 486.213 222.184 489.375 225.346 C 492.537 228.508 495.141 232.321 497.187 236.785 C 499.233 241.249 500.163 245.899 499.977 250.734 C 499.977 255.756 499.047 260.406 497.187 264.684 C 495.327 268.962 492.816 272.682 489.654 275.843 C 486.492 279.005 482.679 281.609 478.215 283.655 C 473.751 285.701 469.102 286.631 464.266 286.445 C 459.244 286.445 454.594 285.515 450.316 283.655 C 446.038 281.795 442.318 279.284 439.156 276.122 C 435.995 272.961 433.39 269.148 431.345 264.684 C 429.299 260.22 428.369 255.57 428.555 250.734 C 428.555 245.712 429.485 241.062 431.345 236.785 C 433.205 232.507 435.716 228.787 438.877 225.625 C 442.039 222.463 445.852 219.859 450.316 217.813 C 454.78 215.767 459.43 214.837 464.266 215.023 Z" style="fill: url(#gradient-0);"/>
</svg>