<?xml version="1.0" encoding="utf-8"?>
<svg viewBox="0 0 500 500" xmlns="http://www.w3.org/2000/svg">
  <defs>
    <linearGradient gradientUnits="userSpaceOnUse" x1="250" y1="38" x2="250" y2="475.493" id="gradient-0" gradientTransform="matrix(0.999968, 0.008018, -0.006562, 0.818449, 3.128192, 84.322289)">
      <stop offset="0" style="stop-color: rgb(161, 31, 83);"/>
      <stop offset="1" style="stop-color: rgb(235, 95, 52);"/>
    </linearGradient>
  </defs>
  <rect id="Canvas" fill="#ff13dc" opacity="0" width="18" height="18" transform="matrix(1, 0, 0, 1, 233.582328, 346.135905)"/>
  <path d="M 363.032 162.998 C 353.429 166.253 344.396 170.485 335.932 175.693 C 327.469 180.901 319.575 187.086 312.251 194.248 L 249.996 194.248 L 249.996 162.998 L 363.032 162.998 Z M 273.433 287.996 C 273.433 293.204 273.759 298.413 274.41 303.621 C 275.061 308.829 276.119 314.037 277.584 319.246 L 249.996 319.246 L 249.996 287.996 L 273.433 287.996 Z M 499.992 100.499 L 499.992 194.003 C 495.435 189.446 490.552 185.377 485.344 181.797 C 480.136 178.216 474.602 174.798 468.743 171.543 L 468.743 131.749 L 437.493 131.749 L 437.493 159.336 C 432.285 158.034 427.077 157.057 421.869 156.406 C 416.66 155.755 411.452 155.348 406.244 155.186 L 406.244 69.25 L 31.25 69.25 L 31.25 320.955 C 31.25 325.023 31.982 328.848 33.447 332.429 C 34.912 336.01 37.028 339.102 39.794 341.706 C 42.561 344.31 45.735 346.426 49.316 348.054 C 52.896 349.681 56.721 350.495 60.79 350.495 L 266.353 350.495 L 235.104 381.745 L 60.79 381.745 C 52.489 381.745 44.677 380.198 37.353 377.106 C 30.029 374.014 23.518 369.619 17.822 363.923 C 12.126 358.226 7.812 351.797 4.883 344.636 C 1.953 337.474 0.325 329.581 0 320.955 L 0 38 L 437.493 38 L 437.493 100.499 L 499.992 100.499 Z M 374.994 131.749 L 62.499 131.749 L 62.499 100.499 L 374.994 100.499 L 374.994 131.749 Z M 62.499 162.998 L 218.747 162.998 L 218.747 319.246 L 62.499 319.246 L 62.499 162.998 Z M 93.749 287.996 L 187.497 287.996 L 187.497 194.248 L 93.749 194.248 L 93.749 287.996 Z M 249.996 225.497 L 281.246 225.497 L 281.246 244.784 C 279.781 248.853 278.56 252.84 277.584 256.747 L 249.996 256.747 L 249.996 225.497 Z M 406.244 194.248 C 419.102 194.248 431.227 196.689 442.62 201.572 C 454.013 206.454 463.941 213.127 472.405 221.591 C 480.868 230.054 487.623 240.064 492.668 251.62 C 497.714 263.176 500.155 275.301 499.992 287.996 C 499.992 301.017 497.551 313.142 492.668 324.373 C 487.786 335.603 481.113 345.531 472.649 354.157 C 464.186 362.783 454.176 369.538 442.62 374.421 C 431.064 379.303 418.939 381.745 406.244 381.745 C 396.478 381.745 387.038 380.28 377.924 377.35 C 368.81 374.421 360.183 370.026 352.045 364.167 L 245.358 470.855 C 242.265 473.947 238.603 475.493 234.371 475.493 C 230.14 475.493 226.478 473.947 223.385 470.855 C 220.293 467.762 218.747 464.1 218.747 459.869 C 218.747 455.637 220.293 451.975 223.385 448.882 L 330.073 342.195 C 324.377 334.219 320.063 325.675 317.134 316.56 C 314.204 307.446 312.658 297.924 312.495 287.996 C 312.495 275.138 314.937 263.013 319.819 251.62 C 324.702 240.227 331.375 230.298 339.839 221.835 C 348.302 213.372 358.23 206.617 369.623 201.572 C 381.016 196.526 393.223 194.085 406.244 194.248 Z M 406.244 350.495 C 414.87 350.495 422.926 348.868 430.413 345.613 C 437.9 342.357 444.573 337.881 450.433 332.185 C 456.292 326.488 460.768 319.897 463.86 312.41 C 466.953 304.923 468.58 296.785 468.743 287.996 C 468.743 279.37 467.115 271.313 463.86 263.827 C 460.605 256.34 456.129 249.667 450.433 243.807 C 444.736 237.948 438.144 233.472 430.658 230.38 C 423.171 227.287 415.033 225.66 406.244 225.497 C 397.618 225.497 389.561 227.125 382.074 230.38 C 374.587 233.635 367.914 238.111 362.055 243.807 C 356.196 249.504 351.72 256.096 348.628 263.583 C 345.535 271.069 343.908 279.207 343.745 287.996 C 343.745 296.622 345.372 304.679 348.628 312.166 C 351.883 319.652 356.359 326.326 362.055 332.185 C 367.751 338.044 374.343 342.52 381.83 345.613 C 389.317 348.705 397.455 350.332 406.244 350.495 Z" style="fill: url(#gradient-0);"/>
</svg>