<?xml version="1.0" encoding="utf-8"?>
<svg viewBox="0 0 500 500" xmlns="http://www.w3.org/2000/svg">
  <defs>
    <radialGradient gradientUnits="userSpaceOnUse" cx="251.4" cy="265.448" r="250" id="gradient-0" gradientTransform="matrix(1.442871, 0.00515, -0.003569, 0.999994, -110.503326, -1.291634)">
      <stop offset="0" style="stop-color: rgb(235, 95, 52);"/>
      <stop offset="1" style="stop-color: rgb(161, 31, 83);"/>
    </radialGradient>
  </defs>
  <path d="M 296.625 319.75 C 298.395 321.5 298.395 324.354 296.625 326.125 C 286.937 335.75 271.75 340.437 250.145 340.437 L 249.979 340.395 L 249.812 340.437 C 228.229 340.437 213.02 335.75 203.333 326.104 C 201.562 324.354 201.562 321.5 203.333 319.75 C 205.083 318 207.958 318 209.729 319.75 C 217.625 327.604 230.729 331.437 249.812 331.437 L 249.979 331.479 L 250.145 331.437 C 269.208 331.437 282.312 327.604 290.229 319.75 C 292 318 294.875 318 296.625 319.75 Z M 224.958 269.375 C 224.958 258.812 216.333 250.229 205.75 250.229 C 195.145 250.229 186.52 258.812 186.52 269.375 C 186.52 279.916 195.145 288.5 205.75 288.5 C 216.333 288.52 224.958 279.937 224.958 269.375 Z M 500 250 C 500 388.062 388.062 500 250 500 C 111.937 500 0 388.062 0 250 C 0 111.937 111.937 0 250 0 C 388.062 0 500 111.937 500 250 Z M 395.833 247.312 C 395.833 229.583 381.354 215.166 363.541 215.166 C 354.854 215.166 346.979 218.645 341.166 224.229 C 319.166 209.75 289.395 200.541 256.458 199.354 L 274.479 142.604 L 323.291 154.041 L 323.229 154.75 C 323.229 169.25 335.083 181.041 349.645 181.041 C 364.208 181.041 376.041 169.25 376.041 154.75 C 376.041 140.25 364.208 128.458 349.645 128.458 C 338.458 128.458 328.937 135.437 325.083 145.208 L 272.479 132.875 C 270.187 132.312 267.833 133.645 267.125 135.895 L 247.02 199.187 C 212.52 199.604 181.291 208.895 158.312 223.791 C 152.541 218.479 144.895 215.145 136.437 215.145 C 118.645 215.166 104.166 229.583 104.166 247.312 C 104.166 259.104 110.645 269.312 120.166 274.916 C 119.541 278.333 119.125 281.812 119.125 285.333 C 119.125 332.854 177.562 371.52 249.395 371.52 C 321.229 371.52 379.666 332.854 379.666 285.333 C 379.666 282 379.312 278.729 378.75 275.5 C 388.875 270.062 395.833 259.541 395.833 247.312 Z M 294.333 250.25 C 283.729 250.25 275.125 258.833 275.125 269.395 C 275.125 279.937 283.75 288.52 294.333 288.52 C 304.916 288.52 313.541 279.937 313.541 269.395 C 313.541 258.833 304.937 250.25 294.333 250.25 Z" style="fill: url(#gradient-0); fill-rule: evenodd;"/>
</svg>