<?xml version="1.0" encoding="utf-8"?>
<svg viewBox="0 0 500 500" xmlns="http://www.w3.org/2000/svg">
  <defs>
    <linearGradient gradientUnits="userSpaceOnUse" x1="250" y1="31" x2="250" y2="468.5" id="gradient-0" gradientTransform="matrix(0.999999, 0.00129, -0.00134, 1.038865, 0.628112, 85.250707)">
      <stop offset="0" style="stop-color: rgb(235, 95, 52);"/>
      <stop offset="1" style="stop-color: rgb(235, 204, 52);"/>
    </linearGradient>
  </defs>
  <path d="M 281.25 405.999 L 281.25 437.25 L 343.75 437.25 L 343.75 468.5 L 187.5 468.5 L 187.5 437.25 L 249.999 437.25 L 249.999 405.999 L 31.25 405.999 L 31.25 312.25 L 62.5 312.25 L 62.5 374.75 L 468.75 374.75 L 468.75 156 L 343.75 156 L 343.75 124.75 L 500 124.75 L 500 405.999 L 281.25 405.999 Z M 312.5 280.999 L 0 280.999 L 0 62.25 L 71.533 62.25 L 102.783 31 L 209.717 31 L 240.967 62.25 L 312.5 62.25 L 312.5 280.999 Z M 281.25 93.5 L 227.782 93.5 L 196.532 62.25 L 115.967 62.25 L 84.716 93.5 L 31.25 93.5 L 31.25 249.75 L 281.25 249.75 L 281.25 93.5 Z M 156.25 93.5 C 164.876 93.5 172.933 95.127 180.42 98.383 C 187.907 101.638 194.58 106.114 200.438 111.809 C 206.299 117.507 210.775 124.099 213.866 131.585 C 216.96 139.073 218.587 147.211 218.75 156 C 218.75 164.627 217.121 172.683 213.866 180.17 C 210.612 187.657 206.136 194.33 200.438 200.19 C 194.743 206.049 188.151 210.525 180.663 213.617 C 173.177 216.71 165.039 218.337 156.25 218.5 C 147.624 218.5 139.567 216.872 132.08 213.617 C 124.593 210.362 117.92 205.886 112.061 200.19 C 106.201 194.493 101.725 187.901 98.633 180.414 C 95.54 172.927 93.913 164.789 93.75 156 C 93.75 147.374 95.378 139.317 98.633 131.83 C 101.888 124.344 106.364 117.67 112.061 111.809 C 117.757 105.951 124.349 101.475 131.837 98.383 C 139.322 95.29 147.461 93.663 156.25 93.5 Z M 156.25 187.25 C 160.645 187.25 164.714 186.436 168.457 184.809 C 172.2 183.181 175.456 180.983 178.222 178.217 C 180.989 175.45 183.268 172.112 185.059 168.206 C 186.849 164.301 187.663 160.232 187.5 156 C 187.5 151.605 186.685 147.537 185.059 143.793 C 183.431 140.05 181.235 136.793 178.467 134.026 C 175.699 131.261 172.363 128.982 168.457 127.192 C 164.551 125.401 160.482 124.587 156.25 124.75 C 151.855 124.75 147.786 125.564 144.043 127.192 C 140.299 128.819 137.044 131.016 134.277 133.783 C 131.511 136.55 129.232 139.887 127.441 143.793 C 125.651 147.699 124.837 151.768 125 156 C 125 160.394 125.814 164.464 127.441 168.206 C 129.069 171.951 131.265 175.206 134.033 177.973 C 136.8 180.74 140.137 183.018 144.043 184.809 C 147.949 186.598 152.018 187.413 156.25 187.25 Z" style="fill: url(#gradient-0);"/>
</svg>