<?xml version="1.0" encoding="utf-8"?>
<svg viewBox="0 0 500 500" xmlns="http://www.w3.org/2000/svg">
  <defs>
    <linearGradient gradientUnits="userSpaceOnUse" x1="250" y1="33" x2="250" y2="470.5" id="gradient-0" gradientTransform="matrix(0.871379, 0.490613, -0.349973, 0.62159, 204.473582, 23.8088)">
      <stop offset="0" style="stop-color: rgb(161, 31, 83);"/>
      <stop offset="1" style="stop-color: rgb(235, 95, 52);"/>
    </linearGradient>
  </defs>
  <rect id="Canvas" fill="#ff13dc" opacity="0" width="18" height="18" transform="matrix(1, 0, 0, 1, 233.582328, 346.135905)"/>
  <path d="M 390.625 376.75 C 397.136 376.75 403.239 377.971 408.936 380.412 C 414.632 382.854 419.597 386.19 423.828 390.422 C 428.06 394.654 431.397 399.618 433.838 405.315 C 436.28 411.011 437.5 417.115 437.5 423.625 C 437.5 430.136 436.28 436.239 433.838 441.936 C 431.397 447.633 428.06 452.597 423.828 456.828 C 419.597 461.06 414.632 464.397 408.936 466.838 C 403.239 469.28 397.136 470.5 390.625 470.5 C 384.115 470.5 378.011 469.28 372.315 466.838 C 366.618 464.397 361.654 461.06 357.422 456.828 C 353.19 452.597 349.854 447.633 347.412 441.936 C 344.971 436.239 343.75 430.136 343.75 423.625 C 343.75 418.58 344.645 413.371 346.436 408 L 216.065 408 C 217.855 413.371 218.75 418.58 218.75 423.625 C 218.75 430.136 217.53 436.239 215.088 441.936 C 212.647 447.633 209.31 452.597 205.078 456.828 C 200.847 461.06 195.882 464.397 190.186 466.838 C 184.489 469.28 178.386 470.5 171.875 470.5 C 165.365 470.5 159.261 469.28 153.565 466.838 C 147.868 464.397 142.904 461.06 138.672 456.828 C 134.44 452.597 131.104 447.633 128.662 441.936 C 126.221 436.239 125 430.136 125 423.625 C 125 414.674 127.36 406.373 132.08 398.723 C 136.8 391.073 143.311 385.295 151.612 381.389 L 46.143 64.25 L 0 64.25 L 0 33 L 68.604 33 L 89.356 95.5 L 500 95.5 L 427.246 314.25 L 162.354 314.25 L 183.106 376.75 L 390.625 376.75 Z M 187.5 423.625 C 187.5 419.394 185.954 415.731 182.862 412.639 C 179.769 409.547 176.107 408 171.875 408 C 167.644 408 163.981 409.547 160.889 412.639 C 157.797 415.731 156.25 419.394 156.25 423.625 C 156.25 427.857 157.797 431.519 160.889 434.612 C 163.981 437.704 167.644 439.25 171.875 439.25 C 176.107 439.25 179.769 437.704 182.862 434.612 C 185.954 431.519 187.5 427.857 187.5 423.625 Z M 390.625 439.25 C 394.857 439.25 398.519 437.704 401.612 434.612 C 404.704 431.519 406.25 427.857 406.25 423.625 C 406.25 419.394 404.704 415.731 401.612 412.639 C 398.519 409.547 394.857 408 390.625 408 C 386.394 408 382.731 409.547 379.639 412.639 C 376.547 415.731 375 419.394 375 423.625 C 375 427.857 376.547 431.519 379.639 434.612 C 382.731 437.704 386.394 439.25 390.625 439.25 Z" style="fill: url(#gradient-0);"/>
</svg>