<?xml version="1.0" encoding="utf-8"?>
<svg viewBox="0 0 500 500" xmlns="http://www.w3.org/2000/svg">
  <defs>
    <linearGradient gradientUnits="userSpaceOnUse" x1="250" y1="0" x2="250" y2="500" id="gradient-0">
      <stop offset="0" style="stop-color: rgb(161, 31, 83);"/>
      <stop offset="1" style="stop-color: rgb(235, 95, 52);"/>
    </linearGradient>
    <linearGradient gradientUnits="userSpaceOnUse" x1="266.512" y1="120.742" x2="266.512" y2="500" id="gradient-1">
      <stop offset="0" style="stop-color: rgb(161, 31, 83);"/>
      <stop offset="1" style="stop-color: rgb(235, 95, 52);"/>
    </linearGradient>
    <linearGradient gradientUnits="userSpaceOnUse" x1="249.915" y1="20.834" x2="249.915" y2="270.25" id="gradient-2">
      <stop offset="0" style="stop-color: rgb(161, 31, 83);"/>
      <stop offset="1" style="stop-color: rgb(235, 95, 52);"/>
    </linearGradient>
  </defs>
  <rect id="Canvas" opacity="0" width="500" height="500" style="fill: url(#gradient-0);"/>
  <path class="a" d="M 113.889 368.639 C 114.472 369.722 116.417 372.556 119.444 376.806 C 146.417 415.584 169.667 456.834 188.889 500 L 416.667 500 C 431.75 458.972 457.278 379.889 439.389 353.5 C 430.194 344.222 418.222 338.195 405.278 336.334 C 402.389 333.472 399.667 330.472 397.111 327.306 C 390.306 318.472 380.556 312.389 369.611 310.139 C 364.5 309.639 359.361 309.556 354.222 309.917 C 346.611 310.528 339.333 306.556 335.75 299.806 C 329.417 291.889 320.5 286.445 310.583 284.417 C 299.889 282.695 294.278 289.834 287.583 289.389 C 282.028 286.972 280.417 269.722 280.417 269.722 L 280.417 153.389 C 283.389 131.417 261.472 114.528 241 122.945 C 228.889 127.917 221.667 140.417 223.417 153.389 L 223.417 306.945 C 223.444 324.584 220 342.056 213.306 358.389 C 211.722 361.5 205.306 370 201.972 374.695 C 183.611 360.861 167.833 343.945 155.306 324.695 C 147.639 309.889 135.333 298.028 120.306 290.861 C 112.472 286.917 103.028 288.167 96.472 293.972 C 77.028 305.917 93.222 333.334 107.417 357.472 C 109.806 361.611 112.083 365.389 113.889 368.639 Z" style="fill: url(#gradient-1);"/>
  <path class="a" d="M 250 20.834 C 145.833 20.75 80.639 133.472 132.667 223.75 C 143.528 242.584 158.75 258.528 177.083 270.222 L 177.083 230.556 C 119.806 174.417 144.778 77.334 222.028 55.806 C 299.278 34.278 370.861 104.445 350.889 182.111 C 346.333 199.806 337.194 216 324.389 229.084 L 322.917 230.556 L 322.917 270.25 C 410.75 214.195 404.944 84.084 312.5 36.056 C 293.194 26.028 271.75 20.806 250 20.834 Z" style="fill: url(#gradient-2);"/>
</svg>