<?xml version="1.0" encoding="utf-8"?>
<svg viewBox="0 0 500 500" xmlns="http://www.w3.org/2000/svg">
  <defs>
    <linearGradient gradientUnits="userSpaceOnUse" x1="250" y1="40.957" x2="250" y2="469.701" id="gradient-0" gradientTransform="matrix(0.999993, -0.003623, 0.002232, 0.616095, -1.046767, 181.226329)">
      <stop offset="0" style="stop-color: rgb(235, 95, 52);"/>
      <stop offset="1" style="stop-color: rgb(235, 204, 52);"/>
    </linearGradient>
  </defs>
  <rect id="Canvas" fill="#ff13dc" opacity="0" width="18" height="18" transform="matrix(1, 0, 0, 1, 233.582328, 346.135905)"/>
  <path d="M 494.992 40 L 494.992 192.884 C 490.527 188.417 485.741 184.43 480.638 180.921 C 475.534 177.412 470.111 174.063 464.368 170.871 L 464.368 70.626 L 433.744 70.626 L 433.744 101.249 L 403.12 101.249 L 403.12 70.626 L 96.875 70.626 L 96.875 101.249 L 66.249 101.249 L 66.249 70.626 L 35.626 70.626 L 35.626 346.245 L 66.249 346.245 L 66.249 315.622 L 96.875 315.622 L 96.875 346.245 L 266.027 346.245 L 235.402 376.871 L 5 376.871 L 5 40 L 494.992 40 Z M 433.744 131.875 L 433.744 158.91 C 428.64 157.633 423.535 156.676 418.432 156.038 C 413.328 155.4 408.223 155.002 403.12 154.842 L 403.12 131.875 L 433.744 131.875 Z M 96.875 223.747 L 66.249 223.747 L 66.249 193.123 L 96.875 193.123 L 96.875 223.747 Z M 96.875 162.497 L 66.249 162.497 L 66.249 131.875 L 96.875 131.875 L 96.875 162.497 Z M 66.249 254.372 L 96.875 254.372 L 96.875 284.996 L 66.249 284.996 L 66.249 254.372 Z M 403.12 193.123 C 415.719 193.123 427.603 195.515 438.769 200.3 C 449.934 205.086 459.663 211.624 467.957 219.919 C 476.252 228.214 482.871 238.023 487.817 249.347 C 492.761 260.673 495.153 272.556 494.992 284.996 C 494.992 297.757 492.6 309.639 487.817 320.645 C 483.03 331.65 476.491 341.381 468.197 349.835 C 459.902 358.289 450.093 364.906 438.769 369.693 C 427.444 374.479 415.561 376.871 403.12 376.871 C 393.55 376.871 384.298 375.435 375.366 372.564 C 366.434 369.693 357.981 365.386 350.004 359.645 L 245.45 464.198 C 242.42 467.228 238.83 468.744 234.684 468.744 C 230.537 468.744 226.948 467.228 223.918 464.198 C 220.887 461.167 219.372 457.578 219.372 453.432 C 219.372 449.285 220.887 445.696 223.918 442.665 L 328.471 338.112 C 322.889 330.296 318.663 321.922 315.791 312.989 C 312.921 304.057 311.405 294.727 311.245 284.996 C 311.245 272.396 313.638 260.512 318.423 249.347 C 323.209 238.183 329.748 228.454 338.043 220.159 C 346.337 211.864 356.066 205.245 367.232 200.3 C 378.396 195.356 390.36 192.963 403.12 193.123 Z M 403.12 346.245 C 411.573 346.245 419.468 344.65 426.806 341.46 C 434.142 338.27 440.683 333.884 446.424 328.302 C 452.167 322.719 456.552 316.258 459.583 308.922 C 462.613 301.586 464.209 293.61 464.368 284.996 C 464.368 276.543 462.774 268.648 459.583 261.31 C 456.394 253.974 452.007 247.432 446.424 241.691 C 440.842 235.95 434.383 231.563 427.045 228.533 C 419.707 225.502 411.732 223.907 403.12 223.747 C 394.666 223.747 386.77 225.342 379.433 228.533 C 372.095 231.722 365.556 236.109 359.814 241.691 C 354.073 247.274 349.686 253.734 346.654 261.07 C 343.624 268.409 342.029 276.384 341.871 284.996 C 341.871 293.449 343.465 301.346 346.654 308.684 C 349.845 316.019 354.232 322.56 359.814 328.302 C 365.397 334.043 371.858 338.43 379.194 341.46 C 386.531 344.492 394.506 346.086 403.12 346.245 Z" style="fill: url(#gradient-0);"/>
</svg>