<?xml version="1.0" encoding="utf-8"?>
<svg viewBox="0 0 500 500" xmlns="http://www.w3.org/2000/svg">
  <defs>
    <linearGradient gradientUnits="userSpaceOnUse" x1="184.125" y1="29" x2="184.125" y2="470.9" id="gradient-2" gradientTransform="matrix(0.999994, 0.003394, -0.003642, 1.072835, 0.911366, 60.828918)">
      <stop offset="0" style="stop-color: rgb(235, 95, 52);"/>
      <stop offset="1" style="stop-color: rgb(235, 204, 52);"/>
    </linearGradient>
  </defs>
  <path d="M 325.096 145.804 C 339.097 159.806 349.742 175.725 357.03 193.562 C 364.318 211.399 368.058 230.195 368.25 249.95 C 368.25 269.705 364.606 288.501 357.318 306.338 C 350.029 324.175 339.289 340.094 325.096 354.096 L 299.203 328.203 C 309.56 317.846 317.52 305.955 323.082 292.529 C 328.644 279.103 331.425 264.91 331.425 249.95 C 331.425 235.182 328.644 221.085 323.082 207.659 C 317.52 194.233 309.56 182.246 299.203 171.697 L 325.096 145.804 Z M 194.77 29 L 220.95 29 L 220.95 470.9 L 195.057 470.9 L 84.295 360.425 L 0 360.425 L 0 139.475 L 84.295 139.475 L 194.77 29 Z M 184.125 92.005 L 99.83 176.3 L 36.825 176.3 L 36.825 323.6 L 99.83 323.6 L 184.125 407.895 L 184.125 92.005 Z" style="fill: url(#gradient-2);"/>
</svg>