<?xml version="1.0" encoding="utf-8"?>
<svg viewBox="0 0 500 500" xmlns="http://www.w3.org/2000/svg">
  <defs>
    <linearGradient gradientUnits="userSpaceOnUse" x1="250" y1="28" x2="250" y2="469.887" id="gradient-0" gradientTransform="matrix(0.999945, 0.010542, -0.010926, 1.036418, 3.538442, 0.368237)">
      <stop offset="0" style="stop-color: rgb(161, 31, 83);"/>
      <stop offset="1" style="stop-color: rgb(235, 95, 52);"/>
    </linearGradient>
  </defs>
  <path d="M 408.44 28 C 423.087 42.648 436.109 58.517 447.502 75.607 C 458.894 92.696 468.415 110.599 476.065 129.317 C 483.715 148.033 489.656 167.484 493.887 187.665 C 498.118 207.847 500.154 228.273 499.991 248.942 C 499.991 269.776 497.956 290.202 493.887 310.22 C 489.818 330.24 483.958 349.689 476.309 368.569 C 468.659 387.45 459.057 405.353 447.502 422.279 C 435.946 439.207 422.925 455.075 408.44 469.887 L 386.223 447.669 C 399.407 434.487 411.125 420.245 421.379 404.945 C 431.633 389.647 440.259 373.534 447.257 356.607 C 454.255 339.68 459.546 322.184 463.126 304.118 C 466.706 286.051 468.496 267.659 468.496 248.942 C 468.496 230.226 466.706 211.835 463.126 193.768 C 459.546 175.701 454.255 158.287 447.257 141.524 C 440.259 124.759 431.633 108.646 421.379 93.184 C 411.125 77.722 399.407 63.4 386.223 50.216 L 408.44 28 Z M 406.243 248.942 C 406.243 278.239 400.71 306.151 389.641 332.682 C 378.573 359.21 362.786 382.893 342.279 403.725 L 320.063 381.508 C 337.803 363.769 351.393 343.505 360.833 320.719 C 370.272 297.933 374.992 274.008 374.992 248.942 C 374.992 223.879 370.272 199.953 360.833 177.167 C 351.393 154.381 337.803 134.117 320.063 116.377 L 342.279 94.161 C 362.786 114.994 378.573 138.675 389.641 165.205 C 400.71 191.734 406.243 219.647 406.243 248.942 Z M 275.874 160.566 C 287.754 172.447 296.788 185.956 302.973 201.092 C 309.157 216.229 312.332 232.179 312.494 248.942 C 312.494 265.706 309.402 281.658 303.217 296.794 C 297.031 311.93 287.917 325.438 275.874 337.321 L 253.901 315.348 C 262.69 306.559 269.445 296.468 274.165 285.074 C 278.886 273.682 281.244 261.637 281.244 248.942 C 281.244 236.41 278.886 224.448 274.165 213.055 C 269.445 201.661 262.69 191.49 253.901 182.537 L 275.874 160.566 Z M 165.279 61.447 L 187.497 61.447 L 187.497 436.44 L 165.524 436.44 L 71.532 342.691 L 0 342.691 L 0 155.194 L 71.532 155.194 L 165.279 61.447 Z M 156.247 114.912 L 84.715 186.443 L 31.249 186.443 L 31.249 311.442 L 84.715 311.442 L 156.247 382.974 L 156.247 114.912 Z" style="fill: url(#gradient-0);"/>
</svg>