<?xml version="1.0" encoding="utf-8"?>
<svg viewBox="0 0 500 500" xmlns="http://www.w3.org/2000/svg">
  <defs>
    <linearGradient gradientUnits="userSpaceOnUse" x1="311.047" y1="171.726" x2="311.047" y2="320.161" id="gradient-0" gradientTransform="matrix(3.366346, 0, 0, 3.366346, -795.821106, -575.544225)">
      <stop offset="0" style="stop-color: rgba(179, 179, 179, 1)"/>
      <stop offset="1" style="stop-color: rgba(128, 128, 128, 1)"/>
    </linearGradient>
    <filter style="color-interpolation-filters:sRGB" id="filter1769" x="-0.057342705" width="1.1146854" y="-0.057086645" height="1.1141733">
      <feGaussianBlur stdDeviation="3.5306992" id="feGaussianBlur1771"/>
    </filter>
    <linearGradient gradientUnits="userSpaceOnUse" x1="310.292" y1="170.97" x2="310.292" y2="319.405" id="gradient-1" gradientTransform="matrix(3.366346, 0, 0, 3.366346, -795.821106, -575.544225)">
      <stop offset="0" style="stop-color: rgb(235, 95, 52);"/>
      <stop offset="1" style="stop-color: rgb(235, 204, 52);"/>
    </linearGradient>
    <linearGradient gradientUnits="userSpaceOnUse" x1="310.575" y1="210.551" x2="310.575" y2="279.85" id="gradient-4" gradientTransform="matrix(3.366346, 0, 0, 3.366346, -795.821106, -575.544225)">
      <stop offset="0" style="stop-color: rgb(235, 95, 52);"/>
      <stop offset="1" style="stop-color: rgb(235, 204, 52);"/>
    </linearGradient>
  </defs>
  <path style="fill-opacity: 1; fill-rule: nonzero; stroke: none; stroke-width: 0.352777; filter: url(#filter1769); fill: url(#gradient-0);" d="M 139.929 422.971 L 147.453 427.432 C 179.053 446.186 215.285 456.103 252.234 456.123 L 252.311 456.123 C 365.78 456.123 458.126 363.798 458.173 250.321 C 458.193 195.329 436.804 143.618 397.932 104.724 C 359.065 65.826 307.381 44.392 252.392 44.368 C 138.835 44.368 46.486 136.684 46.445 250.153 C 46.429 289.038 57.309 326.909 77.914 359.677 L 82.812 367.464 L 62.011 443.402 Z M 2.545 502.229 L 37.686 373.924 C 16.014 336.379 4.609 293.778 4.625 250.14 C 4.679 113.614 115.782 2.545 252.311 2.545 C 318.564 2.575 380.751 28.361 427.519 75.164 C 474.274 121.966 500.024 184.173 500 250.338 C 499.939 386.854 388.816 497.943 252.311 497.943 C 252.301 497.943 252.321 497.943 252.311 497.943 L 252.203 497.943 C 210.757 497.926 170.024 487.528 133.846 467.798 Z M 2.545 502.229" id="path400-6"/>
  <path style="fill-opacity: 1; fill-rule: nonzero; stroke: none; stroke-width: 0.352777; fill: url(#gradient-1);" d="M 0 499.684 L 35.141 371.379 C 13.469 333.834 2.064 291.233 2.08 247.595 C 2.134 111.069 113.237 0 249.766 0 C 316.019 0.03 378.206 25.816 424.974 72.619 C 471.733 119.421 497.479 181.628 497.455 247.793 C 497.394 384.309 386.271 495.398 249.766 495.398 C 249.756 495.398 249.776 495.398 249.766 495.398 L 249.658 495.398 C 208.212 495.381 167.482 484.983 131.301 465.253 Z" id="path400-6-0"/>
  <path style="stroke-width: 0.352777;" d="M 249.847 41.823 C 136.29 41.823 43.941 134.139 43.9 247.608 C 43.884 286.493 54.764 324.364 75.369 357.136 L 80.271 364.919 L 59.466 440.86 L 137.384 420.43 L 144.908 424.887 C 176.508 443.641 212.74 453.561 249.689 453.578 L 249.766 453.578 C 363.235 453.578 455.584 361.253 455.628 247.777 C 455.648 192.787 434.259 141.077 395.387 102.179 C 356.52 63.281 304.836 41.847 249.847 41.823 Z" id="path61-8"/>
  <path style="fill-opacity: 1; fill-rule: evenodd; stroke: none; stroke-width: 0.352777; fill: url(#gradient-4);" d="M 187.866 144.08 C 183.227 133.779 178.346 133.57 173.939 133.388 C 170.33 133.237 166.2 133.243 162.076 133.243 C 157.949 133.243 151.243 134.795 145.574 140.986 C 139.902 147.18 123.912 162.15 123.912 192.599 C 123.912 223.051 146.089 252.469 149.18 256.603 C 152.273 260.734 191.993 325.213 254.903 350.019 C 307.179 370.635 317.817 366.531 329.168 365.504 C 340.513 364.474 365.784 350.534 370.938 336.083 C 376.095 321.631 376.095 309.249 374.55 306.661 C 373.001 304.079 368.877 302.534 362.683 299.44 C 356.496 296.346 326.068 281.369 320.395 279.306 C 314.72 277.242 310.596 276.212 306.469 282.406 C 302.345 288.597 290.492 302.534 286.877 306.661 C 283.268 310.795 279.659 311.31 273.468 308.216 C 267.278 305.112 247.346 298.585 223.7 277.501 C 205.303 261.097 192.885 240.842 189.269 234.648 C 185.661 228.454 188.886 225.104 191.989 222.021 C 194.767 219.247 198.177 214.793 201.277 211.178 C 204.361 207.566 205.394 204.987 207.454 200.863 C 209.518 196.729 208.488 193.114 206.939 190.02 C 205.394 186.926 193.366 156.32 187.866 144.08" id="path418-6"/>
</svg>