<?xml version="1.0" encoding="iso-8859-1"?>
<!-- Generator: Adobe Illustrator 19.0.0, SVG Export Plug-In . SVG Version: 6.00 Build 0)  -->
<svg version="1.1" id="Layer_1" xmlns="http://www.w3.org/2000/svg" xmlns:xlink="http://www.w3.org/1999/xlink" x="0px" y="0px"
	 viewBox="0 0 512 512" style="enable-background:new 0 0 512 512;" xml:space="preserve">
<!-- <polygon style="fill:#88888F;" points="264.758,238.483 132.629,106.354 97.594,141.388 212.206,256 97.594,370.612 
	132.629,405.646 264.758,273.517 247.242,256 "/> -->
<polygon style="fill:#fff;" points="264.758,238.483 132.629,106.354 97.594,141.388 212.206,256 97.594,370.612 
	132.629,405.646 264.758,273.517 247.242,256 "/>
<!-- <path style="fill:#56545A;" d="M274.019,512h-51.552V0h51.552l140.387,140.387L298.793,256l115.613,115.613L274.019,512z
	 M272.016,299.294V443.93l72.319-72.318L272.016,299.294z M272.016,68.068v144.637l72.319-72.318L272.016,68.068z"/> -->
<path style="fill:#eee;" d="M274.019,512h-51.552V0h51.552l140.387,140.387L298.793,256l115.613,115.613L274.019,512z
	 M272.016,299.294V443.93l72.319-72.318L272.016,299.294z M272.016,68.068v144.637l72.319-72.318L272.016,68.068z"/>
<g>
</g>
<g>
</g>
<g>
</g>
<g>
</g>
<g>
</g>
<g>
</g>
<g>
</g>
<g>
</g>
<g>
</g>
<g>
</g>
<g>
</g>
<g>
</g>
<g>
</g>
<g>
</g>
<g>
</g>
</svg>
