<?xml version="1.0" encoding="iso-8859-1"?><!-- Generator: Adobe Illustrator 19.2.1, SVG Export Plug-In . SVG Version: 6.00 Build 0)  --><svg xmlns="http://www.w3.org/2000/svg" xmlns:xlink="http://www.w3.org/1999/xlink" version="1.1" id="Layer_1" x="0px" y="0px" viewBox="0 0 80 80" style="enable-background:new 0 0 80 80;" xml:space="preserve" width="80" height="80">
<g>
	<path style="fill:#F5C276;" d="M12.728,73.5c-1.228,0-2.228-1.018-2.228-2.27V6.769c0-1.251,1-2.269,2.228-2.269h20.965   C33.563,5.01,33.5,5.505,33.5,6c0,3.584,2.916,6.5,6.5,6.5s6.5-2.916,6.5-6.5c0-0.495-0.063-0.99-0.192-1.5h20.965   C68.5,4.5,69.5,5.518,69.5,6.769V71.23c0,1.251-1,2.27-2.228,2.27H12.728z"/>
	<path style="fill:#C29653;" d="M67.273,5C68.225,5,69,5.794,69,6.769v64.462C69,72.206,68.225,73,67.273,73H12.727   C11.775,73,11,72.206,11,71.231V6.769C11,5.794,11.775,5,12.727,5h20.352C33.026,5.335,33,5.667,33,6c0,3.86,3.14,7,7,7s7-3.14,7-7   c0-0.333-0.026-0.665-0.079-1H67.273 M67.273,4h-21.64C45.856,4.628,46,5.295,46,6c0,3.314-2.686,6-6,6s-6-2.686-6-6   c0-0.705,0.144-1.372,0.367-2h-21.64C11.221,4,10,5.24,10,6.769v64.462C10,72.76,11.221,74,12.727,74h54.545   C68.779,74,70,72.76,70,71.231V6.769C70,5.24,68.779,4,67.273,4L67.273,4z"/>
</g>
<g>
	<path style="fill:#66798F;" d="M40,1c2.206,0,4,1.794,4,4s-1.794,4-4,4s-4-1.794-4-4S37.794,1,40,1 M40,0c-2.761,0-5,2.239-5,5   s2.239,5,5,5s5-2.239,5-5S42.761,0,40,0L40,0z"/>
</g>
<path style="fill:#66798F;" d="M44.38,4c0.073,0.323,0.12,0.655,0.12,1c0,2.485-2.015,4.5-4.5,4.5S35.5,7.485,35.5,5  c0-0.345,0.047-0.677,0.12-1H26v8c0,2.209,1.791,4,4,4h20c2.209,0,4-1.791,4-4V4H44.38z"/>
<g>
	<rect x="30.5" y="30.5" style="fill:#F2FAFF;" width="47" height="47"/>
	<g>
		<path style="fill:#788B9C;" d="M77,31v46H31V31H77 M78,30H30v48h48V30L78,30z"/>
	</g>
</g>
<rect x="68" y="30" style="fill:#F2FAFF;" width="2" height="48"/>
<rect x="58" y="30" style="fill:#F2FAFF;" width="2" height="48"/>
<rect x="48" y="30" style="fill:#F2FAFF;" width="2" height="48"/>
<rect x="38" y="30" style="fill:#F2FAFF;" width="2" height="48"/>
<rect x="53" y="45" transform="matrix(-1.836970e-16 1 -1 -1.836970e-16 123 15)" style="fill:#F2FAFF;" width="2" height="48"/>
<rect x="53" y="35" transform="matrix(-1.836970e-16 1 -1 -1.836970e-16 113 5)" style="fill:#F2FAFF;" width="2" height="48"/>
<rect x="53" y="25" transform="matrix(-1.836970e-16 1 -1 -1.836970e-16 103 -5)" style="fill:#F2FAFF;" width="2" height="48"/>
<rect x="53" y="15" transform="matrix(-1.836970e-16 1 -1 -1.836970e-16 93 -15)" style="fill:#F2FAFF;" width="2" height="48"/>
</svg>