<?xml version="1.0" encoding="utf-8"?>
<svg viewBox="0 0 500 500" xmlns="http://www.w3.org/2000/svg">
  <path d="M 500 0.587 L 500 500.587 L 0 500.587 L 0 0.587 L 500 0.587 Z M 461.538 39.049 L 346.154 39.049 L 346.154 154.433 L 461.538 154.433 L 461.538 39.049 Z M 307.692 308.279 L 307.692 192.895 L 192.308 192.895 L 192.308 308.279 L 307.692 308.279 Z M 192.308 346.741 L 192.308 462.125 L 307.692 462.125 L 307.692 346.741 L 192.308 346.741 Z M 153.846 192.895 L 38.462 192.895 L 38.462 308.279 L 153.846 308.279 L 153.846 192.895 Z M 307.692 154.433 L 307.692 39.049 L 192.308 39.049 L 192.308 154.433 L 307.692 154.433 Z M 346.154 308.279 L 461.538 308.279 L 461.538 192.895 L 346.154 192.895 L 346.154 308.279 Z M 38.462 39.049 L 38.462 154.433 L 153.846 154.433 L 153.846 39.049 L 38.462 39.049 Z M 38.462 462.125 L 153.846 462.125 L 153.846 346.741 L 38.462 346.741 L 38.462 462.125 Z M 461.538 462.125 L 461.538 346.741 L 346.154 346.741 L 346.154 462.125 L 461.538 462.125 Z" fill="#69bfee"/>
</svg>