<?xml version="1.0" encoding="utf-8"?>
<svg viewBox="0 0 800 400" xmlns="http://www.w3.org/2000/svg">
  <path fill-rule="evenodd" clip-rule="evenodd" d="M 458.83 263.248 L 489.447 344.003 L 526.938 344.003 L 415.6 55.278 L 380.548 55.278 L 270 344.003 L 307.628 344.003 L 336.426 263.248 L 458.83 263.248 Z M 400.961 105.209 L 402.472 109.848 L 447.764 232.665 L 347.491 232.665 L 392.404 109.848 L 393.916 105.209 L 395.756 99.748 L 396.821 94.724 L 397.846 90.698 L 398.859 94.757 L 399.655 99.849 L 400.961 105.209 Z M 581.887 300.12 C 580.134 295.928 592.745 314.038 589.447 310.98 C 586.148 307.921 583.639 304.314 581.887 300.12 Z" style="fill: rgb(255, 0, 0);"/>
  <path fill-rule="evenodd" clip-rule="evenodd" d="M 703.804 263.898 L 734.421 344.653 L 771.912 344.653 L 660.574 55.928 L 625.522 55.928 L 514.974 344.653 L 552.602 344.653 L 581.4 263.898 L 703.804 263.898 Z M 645.935 105.859 L 647.446 110.498 L 692.738 233.315 L 592.465 233.315 L 637.378 110.498 L 638.89 105.859 L 640.73 100.398 L 641.795 95.374 L 642.82 91.348 L 643.833 95.407 L 644.629 100.499 L 645.935 105.859 Z M 826.861 300.77 C 825.108 296.578 837.719 314.688 834.421 311.63 C 831.122 308.571 828.613 304.964 826.861 300.77 Z" style="fill: rgb(110, 110, 110);"/>
  <path fill-rule="evenodd" clip-rule="evenodd" d="M 216.243 263.714 L 246.86 344.469 L 284.351 344.469 L 173.013 55.744 L 137.961 55.744 L 27.413 344.469 L 65.041 344.469 L 93.839 263.714 L 216.243 263.714 Z M 158.374 105.675 L 159.885 110.314 L 205.177 233.131 L 104.904 233.131 L 149.817 110.314 L 151.329 105.675 L 153.169 100.214 L 154.234 95.19 L 155.259 91.164 L 156.272 95.223 L 157.068 100.315 L 158.374 105.675 Z M 339.3 300.586 C 337.547 296.394 350.158 314.504 346.86 311.446 C 343.561 308.387 341.052 304.78 339.3 300.586 Z" style="fill: rgb(110, 110, 110);"/>
</svg>