<?xml version="1.0" encoding="utf-8"?>
<svg viewBox="0 0 500 500" xmlns="http://www.w3.org/2000/svg">
  <path fill-rule="evenodd" clip-rule="evenodd" d="M 188.83 310.556 L 219.447 391.311 L 256.938 391.311 L 145.6 102.586 L 110.548 102.586 L 0 391.311 L 37.628 391.311 L 66.426 310.556 L 188.83 310.556 Z M 130.961 152.517 L 132.472 157.156 L 177.764 279.973 L 77.491 279.973 L 122.404 157.156 L 123.916 152.517 L 125.756 147.056 L 126.821 142.032 L 127.846 138.006 L 128.859 142.065 L 129.655 147.157 L 130.961 152.517 Z M 311.887 347.428 C 310.134 343.236 322.745 361.346 319.447 358.288 C 316.148 355.229 313.639 351.622 311.887 347.428 Z" style="fill: rgb(255, 0, 0);"/>
  <path fill-rule="evenodd" clip-rule="evenodd" d="M 433.804 310.898 L 464.421 391.653 L 501.912 391.653 L 390.574 102.928 L 355.522 102.928 L 244.974 391.653 L 282.602 391.653 L 311.4 310.898 L 433.804 310.898 Z M 375.935 152.859 L 377.446 157.498 L 422.738 280.315 L 322.465 280.315 L 367.378 157.498 L 368.89 152.859 L 370.73 147.398 L 371.795 142.374 L 372.82 138.348 L 373.833 142.407 L 374.629 147.499 L 375.935 152.859 Z M 556.861 347.77 C 555.108 343.578 567.719 361.688 564.421 358.63 C 561.122 355.571 558.613 351.964 556.861 347.77 Z" style="fill: rgb(110, 110, 110);"/>
</svg>