<svg xmlns="http://www.w3.org/2000/svg" height="18" viewBox="0 0 18 18" width="18">
    <defs>
      <style>
        .a {
          fill: #6E6E6E;
        }
      </style>
    </defs>
    <title>S Play 18 N</title>
    <rect id="Canvas" fill="#ff13dc" opacity="0" width="18" height="18" /><path fill="#6e6e6e" d="M 13.98652673675648,15.91752089398528 L 15.21652673675648,15.91752089398528 A 0.5,0.5 180.0 0,0 15.71652673675648,15.41752089398528 L 15.716526736756478,2.41752089398528 A 0.5,0.5 180.0 0,0 15.216526736756478,1.9175208939852801 L 13.986526736756478,1.9175208939852801 A 1.0,1.0 180.0 0,0 13.483026736756479,2.0535208939852794 C 13.467754618228104,2.0624206469483024 13.475505881207123,2.057906469016915 13.460236265394794,2.066810515293268 L 2.4959129071783734,8.460346788263376 C 2.4658391729957048,8.477883439097052 2.481035773541119,8.468873760467048 2.4510267367564795,8.48652089398528 A 0.5,0.5 180.0 0,0 2.4510267367564795,9.348520893985281 C 2.481035773541119,9.366168027503512 2.4658391729957043,9.357158348873508 2.4959129071783734,9.374694999707184 L 13.460236265394794,15.768231272677294 C 13.475505881207123,15.777135318953643 13.467754618228104,15.772621141022256 13.483026736756479,15.781520893985281 A 1.0,1.0 180.0 0,0 13.98652673675648,15.91752089398528" />
  </svg>
