<?xml version="1.0" encoding="utf-8"?>
<svg viewBox="0 0 500 500" xmlns="http://www.w3.org/2000/svg">
  <defs>
    <linearGradient gradientUnits="userSpaceOnUse" x1="250" y1="0" x2="250" y2="500" id="gradient-0" gradientTransform="matrix(0.999955, 0.009482, -0.007036, 0.742011, 2.942922, 175.290045)">
      <stop offset="0" style="stop-color: rgb(235, 95, 52);"/>
      <stop offset="1" style="stop-color: rgb(235, 204, 52);"/>
    </linearGradient>
  </defs>
  <path d="M 111.572 360.596 C 111.572 360.433 111.816 359.212 112.305 356.934 C 112.793 354.655 113.525 351.807 114.502 348.389 C 115.479 344.971 116.292 341.227 116.943 337.158 C 117.594 333.089 118.489 329.264 119.629 325.684 C 120.768 322.103 121.582 318.929 122.07 316.162 C 122.559 313.395 122.966 311.768 123.291 311.279 L 150.146 326.904 C 149.007 328.044 147.298 329.671 145.02 331.787 C 142.741 333.903 140.3 336.182 137.695 338.623 C 135.091 341.064 132.243 343.669 129.15 346.436 C 126.058 349.202 123.454 351.725 121.338 354.004 C 119.222 356.282 117.187 358.073 115.234 359.375 C 113.281 360.677 112.386 361.409 112.549 361.572 C 111.898 361.572 111.572 361.247 111.572 360.596 Z M 365.234 296.143 C 365.885 296.143 366.374 296.224 366.699 296.387 C 370.768 297.852 374.268 300.049 377.197 302.978 C 380.127 305.908 382.65 309.407 384.766 313.477 C 386.882 317.546 388.346 321.614 389.16 325.684 C 389.974 329.753 390.462 333.984 390.625 338.379 C 390.625 339.193 390.462 340.983 390.137 343.75 C 389.811 346.517 389.323 349.528 388.672 352.783 C 388.021 356.038 387.288 358.887 386.475 361.328 C 385.661 363.77 384.766 364.99 383.789 364.99 C 383.138 364.99 382.731 364.746 382.568 364.258 C 381.429 362.142 380.452 360.107 379.639 358.154 C 378.825 356.201 377.604 354.248 375.977 352.295 C 373.21 348.877 370.036 346.191 366.455 344.238 C 362.874 342.285 359.375 340.088 355.957 337.646 C 352.539 335.205 349.772 332.52 347.656 329.59 C 345.54 326.66 344.401 322.184 344.238 316.162 C 344.238 314.534 344.401 312.5 344.727 310.059 C 345.052 307.617 345.947 305.989 347.412 305.176 L 362.305 296.875 C 362.956 296.387 363.932 296.143 365.234 296.143 Z M 365.967 289.307 L 339.111 304.443 L 321.045 272.461 C 325.277 269.694 329.671 267.09 334.228 264.648 C 338.786 262.207 343.262 259.766 347.656 257.324 L 365.967 289.307 Z M 244.385 165.039 C 244.385 166.016 243.734 167.725 242.432 170.166 C 241.13 172.607 239.665 175.374 238.037 178.467 C 236.409 181.559 234.7 184.326 232.91 186.768 C 231.12 189.209 229.98 190.999 229.492 192.139 L 201.416 175.537 L 215.576 151.367 C 216.716 149.739 218.18 148.926 219.971 148.926 C 220.784 148.926 222.249 149.414 224.365 150.391 C 226.481 151.367 228.678 152.588 230.957 154.053 C 233.236 155.518 235.433 156.901 237.549 158.203 C 239.665 159.505 241.13 160.4 241.943 160.889 C 243.571 162.028 244.385 163.411 244.385 165.039 Z M 143.066 266.602 L 98.389 266.602 L 98.389 236.084 L 160.889 236.084 L 143.066 266.602 Z M 294.678 236.084 L 312.012 266.602 L 191.65 266.602 L 209.473 236.084 L 294.678 236.084 Z M 341.309 236.084 L 405.029 236.084 L 405.029 266.602 L 358.643 266.602 L 341.309 236.084 Z M 256.592 102.051 C 258.382 102.051 259.684 102.783 260.498 104.248 L 345.459 253.174 L 318.603 268.555 C 317.79 266.927 315.918 263.591 312.988 258.545 C 310.059 253.499 306.478 247.396 302.246 240.234 C 298.014 233.073 293.457 225.098 288.574 216.309 C 283.691 207.52 278.646 198.649 273.437 189.697 C 268.229 180.745 263.265 172.038 258.545 163.574 C 253.825 155.111 249.512 147.542 245.605 140.869 C 241.699 134.196 238.688 128.743 236.572 124.512 C 234.456 120.28 233.317 118.001 233.154 117.676 C 233.154 115.885 233.887 114.502 235.352 113.525 C 236.003 113.037 237.386 112.223 239.502 111.084 C 241.618 109.945 243.896 108.643 246.338 107.178 C 248.779 105.713 250.977 104.573 252.93 103.76 C 254.883 102.946 256.103 102.376 256.592 102.051 Z M 227.295 196.045 L 153.32 323.242 L 125 306.641 L 199.219 179.687 L 227.295 196.045 Z M 250 0 C 272.949 0 295.085 2.93 316.406 8.789 C 337.728 14.648 357.585 23.112 375.977 34.18 C 394.368 45.247 411.214 58.268 426.514 73.242 C 441.813 88.216 454.915 105.062 465.82 123.779 C 476.725 142.497 485.107 162.435 490.967 183.594 C 496.826 204.753 499.837 226.888 500 250 C 500 272.949 497.07 295.085 491.211 316.406 C 485.352 337.728 476.888 357.585 465.82 375.977 C 454.753 394.368 441.732 411.214 426.758 426.514 C 411.784 441.813 394.938 454.915 376.221 465.82 C 357.503 476.725 337.565 485.107 316.406 490.967 C 295.247 496.826 273.112 499.837 250 500 C 227.051 500 204.915 497.07 183.594 491.211 C 162.272 485.352 142.415 476.888 124.023 465.82 C 105.632 454.753 88.786 441.732 73.486 426.758 C 58.187 411.784 45.085 394.938 34.18 376.221 C 23.275 357.503 14.893 337.565 9.033 316.406 C 3.174 295.247 0.163 273.112 0 250 C 0 227.051 2.93 204.915 8.789 183.594 C 14.648 162.272 23.112 142.415 34.18 124.023 C 45.247 105.632 58.268 88.786 73.242 73.486 C 88.216 58.187 105.062 45.085 123.779 34.18 C 142.497 23.275 162.435 14.893 183.594 9.033 C 204.753 3.174 226.888 0.163 250 0 Z M 250 476.318 C 270.833 476.318 290.853 473.633 310.059 468.262 C 329.264 462.891 347.331 455.322 364.258 445.557 C 381.185 435.791 396.403 423.991 409.912 410.156 C 423.421 396.322 435.221 381.022 445.312 364.258 C 455.404 347.493 463.053 329.509 468.262 310.303 C 473.47 291.097 476.155 270.996 476.318 250 C 476.318 229.167 473.633 209.147 468.262 189.941 C 462.891 170.736 455.322 152.669 445.557 135.742 C 435.791 118.815 423.991 103.597 410.156 90.088 C 396.322 76.579 381.022 64.779 364.258 54.687 C 347.493 44.596 329.509 36.947 310.303 31.738 C 291.097 26.53 270.996 23.844 250 23.682 C 229.167 23.682 209.147 26.367 189.941 31.738 C 170.736 37.109 152.669 44.678 135.742 54.443 C 118.815 64.209 103.597 76.009 90.088 89.844 C 76.579 103.678 64.779 118.978 54.687 135.742 C 44.596 152.507 36.947 170.491 31.738 189.697 C 26.53 208.903 23.844 229.004 23.682 250 C 23.682 270.833 26.367 290.853 31.738 310.059 C 37.109 329.264 44.678 347.331 54.443 364.258 C 64.209 381.185 76.009 396.403 89.844 409.912 C 103.678 423.421 118.978 435.221 135.742 445.312 C 152.507 455.404 170.491 463.053 189.697 468.262 C 208.903 473.47 229.004 476.155 250 476.318 Z" style="fill: url(#gradient-0);"/>
</svg>