<?xml version="1.0" encoding="utf-8"?>
<svg viewBox="0 0 500 500" xmlns="http://www.w3.org/2000/svg">
  <defs>
    <linearGradient gradientUnits="userSpaceOnUse" x1="250" y1="0" x2="250" y2="500" id="gradient-0" gradientTransform="matrix(1, 0, 0, 0.670478, 0, 164.761075)">
      <stop offset="0" style="stop-color: rgb(161, 31, 83);"/>
      <stop offset="1" style="stop-color: rgb(235, 95, 52);"/>
    </linearGradient>
  </defs>
  <path d="M 250 133.333 C 266.146 133.333 281.25 136.372 295.312 142.448 C 309.375 148.524 321.788 156.858 332.552 167.448 C 343.316 178.038 351.649 190.365 357.552 204.427 C 363.455 218.49 366.493 233.681 366.667 250 C 366.667 266.146 363.628 281.25 357.552 295.312 C 351.476 309.375 343.142 321.788 332.552 332.552 C 321.962 343.316 309.635 351.649 295.573 357.552 C 281.51 363.455 266.32 366.493 250 366.667 C 233.854 366.667 218.75 363.629 204.687 357.552 C 190.625 351.476 178.212 343.142 167.448 332.552 C 156.684 321.962 148.351 309.635 142.448 295.573 C 136.545 281.51 133.507 266.32 133.333 250 C 133.333 233.854 136.372 218.75 142.448 204.687 C 148.524 190.625 156.858 178.212 167.448 167.448 C 178.038 156.684 190.365 148.351 204.427 142.448 C 218.49 136.545 233.68 133.507 250 133.333 Z M 250 333.333 C 261.458 333.333 272.222 331.163 282.292 326.823 C 292.361 322.483 301.128 316.58 308.594 309.115 C 316.059 301.649 322.049 292.795 326.562 282.552 C 331.076 272.309 333.333 261.458 333.333 250 C 333.333 238.542 331.163 227.778 326.823 217.708 C 322.483 207.639 316.493 198.872 308.854 191.406 C 301.215 183.941 292.361 177.952 282.292 173.437 C 272.222 168.924 261.458 166.667 250 166.667 C 238.542 166.667 227.778 168.837 217.708 173.177 C 207.639 177.517 198.785 183.507 191.146 191.146 C 183.507 198.785 177.517 207.639 173.177 217.708 C 168.837 227.778 166.667 238.542 166.667 250 C 166.667 261.458 168.837 272.222 173.177 282.292 C 177.517 292.361 183.42 301.215 190.885 308.854 C 198.351 316.493 207.205 322.483 217.448 326.823 C 227.691 331.163 238.542 333.333 250 333.333 Z M 266.667 100 L 233.333 100 L 233.333 0 L 266.667 0 L 266.667 100 Z M 233.333 400 L 266.667 400 L 266.667 500 L 233.333 500 L 233.333 400 Z M 500 233.333 L 500 266.667 L 400 266.667 L 400 233.333 L 500 233.333 Z M 100 266.667 L 0 266.667 L 0 233.333 L 100 233.333 L 100 266.667 Z M 132.031 155.729 L 61.458 84.896 L 84.896 61.458 L 155.729 132.031 L 132.031 155.729 Z M 367.969 344.271 L 438.542 415.104 L 415.104 438.542 L 344.271 367.969 L 367.969 344.271 Z M 367.969 155.729 L 344.271 132.031 L 415.104 61.458 L 438.542 84.896 L 367.969 155.729 Z M 132.031 344.271 L 155.729 367.969 L 84.896 438.542 L 61.458 415.104 L 132.031 344.271 Z" style="fill: url(#gradient-0);"/>
</svg>