<?xml version="1.0" encoding="utf-8"?>
<svg viewBox="0 0 500 500" xmlns="http://www.w3.org/2000/svg">
  <defs>
    <clipPath clipPathUnits="userSpaceOnUse" id="clipPath4674">
      <path d="M 0,500 1024,500 1024,0 0,0 0,500 Z" id="path4676"/>
    </clipPath>
    <linearGradient gradientUnits="userSpaceOnUse" x1="-118.716" y1="0" x2="-118.716" y2="266.895" id="gradient-0" gradientTransform="matrix(0.658041, -0.752982, 0.584481, 0.510787, -185.252513, -97.637499)">
      <stop offset="0" style="stop-color: rgb(235, 204, 52);"/>
      <stop offset="1" style="stop-color: rgb(235, 95, 52);"/>
    </linearGradient>
  </defs>
  <g transform="matrix(1.677852, 0, 0, 1.677852, -57.85235, -722.283042)" id="layer1">
    <g transform="matrix(1.1165523,0,0,-1.1165523,-103.48743,863.08638)" id="g4670">
      <g id="g4672" clip-path="url(#clipPath4674)">
        <g id="g4678" transform="matrix(1, 0, 0, 1, 375.716309, 120.552696)">
          <path d="M 0 0 C 8.134 0 14.73 6.596 14.73 14.73 L 14.73 252.164 C 14.73 260.301 8.134 266.895 0 266.895 L -237.433 266.895 C -245.57 266.895 -252.163 260.301 -252.163 252.164 L -252.163 14.73 C -252.163 6.596 -245.57 0 -237.433 0 L 0 0 Z" style="fill-opacity: 1; fill-rule: nonzero; stroke: none; fill: url(#gradient-0);" id="path4680"/>
        </g>
        <g id="g4682" transform="translate(307.7046,120.5527)">
          <path d="M 0 0 L 0 103.355 L 34.693 103.355 L 39.887 143.635 L 0 143.635 L 0 169.352 C 0 181.014 3.238 188.961 19.962 188.961 L 41.292 188.971 L 41.292 224.997 C 37.602 225.487 24.941 226.584 10.211 226.584 C -20.542 226.584 -41.595 207.813 -41.595 173.34 L -41.595 143.635 L -76.376 143.635 L -76.376 103.355 L -41.595 103.355 L -41.595 0 L 0 0 Z" style="fill-rule: nonzero; stroke: none; fill-opacity: 0.85;" id="path4684"/>
        </g>
      </g>
    </g>
  </g>
</svg>