<?xml version="1.0" encoding="utf-8"?>
<svg viewBox="0 0 500 500" xmlns="http://www.w3.org/2000/svg">
  <defs>
    <linearGradient gradientUnits="userSpaceOnUse" x1="251" y1="18" x2="251" y2="477.375" id="gradient-0" gradientTransform="matrix(0.999651, 0.026391, -0.016665, 0.631278, 8.043106, 170.351773)">
      <stop offset="0" style="stop-color: rgb(235, 95, 52);"/>
      <stop offset="1" style="stop-color: rgb(235, 204, 52);"/>
    </linearGradient>
  </defs>
  <rect id="Canvas" fill="#ff13dc" opacity="0" width="18" height="18" transform="matrix(1, 0, 0, 1, 233.582328, 346.135905)"/>
  <path d="M 450.063 201.75 C 456.442 201.75 462.424 202.947 468.006 205.34 C 473.59 207.732 478.454 211.001 482.602 215.149 C 486.749 219.296 490.018 224.161 492.411 229.744 C 494.803 235.326 496 241.308 496 247.688 C 496 254.067 494.803 260.049 492.411 265.631 C 490.018 271.215 486.749 276.079 482.602 280.227 C 478.454 284.374 473.59 287.643 468.006 290.036 C 462.424 292.428 456.442 293.625 450.063 293.625 L 319.907 293.625 L 228.032 477.375 L 164.389 477.375 L 225.639 293.625 L 67.25 293.625 L 51.22 324.25 L 6 324.25 L 31.841 247.688 L 6 171.125 L 51.22 171.125 L 67.25 201.75 L 225.639 201.75 L 164.389 18 L 228.032 18 L 319.907 201.75 L 450.063 201.75 Z" style="fill: url(#gradient-0);"/>
</svg>