<?xml version="1.0" encoding="utf-8"?>
<svg viewBox="0 0 500 500" xmlns="http://www.w3.org/2000/svg">
  <defs>
    <linearGradient gradientUnits="userSpaceOnUse" x1="250" y1="39" x2="250" y2="476.494" id="gradient-0" gradientTransform="matrix(0.999921, 0.012611, -0.00875, 0.693769, 4.189074, 142.764601)">
      <stop offset="0" style="stop-color: rgb(161, 31, 83);"/>
      <stop offset="1" style="stop-color: rgb(235, 95, 52);"/>
    </linearGradient>
  </defs>
  <rect id="Canvas" fill="#ff13dc" opacity="0" width="18" height="18" transform="matrix(1, 0, 0, 1, 233.582328, 346.135905)"/>
  <path d="M 406.244 117.124 C 406.244 121.356 404.697 125.017 401.605 128.11 C 398.512 131.202 394.851 132.749 390.619 132.749 C 386.387 132.749 382.725 131.202 379.632 128.11 C 376.54 125.017 374.994 121.356 374.994 117.124 C 374.994 112.892 376.54 109.23 379.632 106.137 C 382.725 103.045 386.387 101.499 390.619 101.499 C 394.851 101.499 398.512 103.045 401.605 106.137 C 404.697 109.23 406.244 112.892 406.244 117.124 Z M 499.992 39 L 499.992 195.004 C 495.435 190.446 490.552 186.377 485.344 182.796 C 480.136 179.216 474.602 175.799 468.742 172.542 L 468.742 70.25 L 31.25 70.25 L 31.25 235.53 L 140.622 126.401 L 276.362 261.897 C 274.41 270.686 273.434 279.719 273.434 288.996 C 273.434 291.6 273.596 294.205 273.921 296.809 C 274.247 299.412 274.572 302.017 274.899 304.621 L 140.622 170.346 L 31.25 279.964 L 31.25 382.745 L 235.104 382.745 L 203.854 413.994 L 0 413.994 L 0 39 L 499.992 39 Z M 406.244 195.247 C 419.101 195.247 431.227 197.689 442.62 202.571 C 454.014 207.455 463.941 214.127 472.405 222.591 C 480.869 231.055 487.622 241.064 492.669 252.62 C 497.714 264.176 500.155 276.301 499.992 288.996 C 499.992 302.017 497.551 314.142 492.669 325.372 C 487.785 336.602 481.112 346.531 472.649 355.157 C 464.185 363.784 454.176 370.537 442.62 375.421 C 431.065 380.304 418.939 382.745 406.244 382.745 C 396.479 382.745 387.039 381.28 377.924 378.35 C 368.81 375.421 360.184 371.026 352.045 365.167 L 245.357 471.855 C 242.265 474.947 238.602 476.494 234.371 476.494 C 230.14 476.494 226.477 474.947 223.385 471.855 C 220.292 468.762 218.746 465.1 218.746 460.869 C 218.746 456.637 220.292 452.975 223.385 449.882 L 330.072 343.195 C 324.376 335.22 320.064 326.675 317.134 317.56 C 314.204 308.446 312.657 298.925 312.495 288.996 C 312.495 276.139 314.936 264.012 319.819 252.62 C 324.702 241.227 331.375 231.299 339.839 222.835 C 348.302 214.371 358.23 207.617 369.624 202.571 C 381.016 197.526 393.224 195.085 406.244 195.247 Z M 406.244 351.495 C 414.87 351.495 422.926 349.867 430.414 346.612 C 437.9 343.357 444.574 338.881 450.432 333.185 C 456.292 327.489 460.767 320.896 463.86 313.41 C 466.952 305.924 468.58 297.785 468.742 288.996 C 468.742 280.37 467.115 272.314 463.86 264.826 C 460.605 257.34 456.129 250.666 450.432 244.807 C 444.736 238.949 438.145 234.472 430.657 231.38 C 423.17 228.287 415.032 226.66 406.244 226.497 C 397.617 226.497 389.561 228.125 382.074 231.38 C 374.587 234.635 367.914 239.111 362.055 244.807 C 356.196 250.504 351.72 257.096 348.627 264.582 C 345.535 272.07 343.907 280.207 343.745 288.996 C 343.745 297.622 345.372 305.679 348.627 313.166 C 351.882 320.652 356.359 327.326 362.055 333.185 C 367.751 339.044 374.344 343.52 381.83 346.612 C 389.317 349.705 397.455 351.332 406.244 351.495 Z" style="fill: url(#gradient-0);"/>
</svg>