<?xml version="1.0" encoding="utf-8"?>
<svg viewBox="0 0 500 500" xmlns="http://www.w3.org/2000/svg">
  <defs>
    <linearGradient gradientUnits="userSpaceOnUse" x1="501.642" y1="328.849" x2="501.642" y2="563.837" id="gradient-0" gradientTransform="matrix(0.719009, 0.695, -0.696549, 0.720608, 390.89218, -173.865072)">
      <stop offset="0" style="stop-color: rgb(235, 95, 52);"/>
      <stop offset="1" style="stop-color: rgb(235, 204, 52);"/>
    </linearGradient>
  </defs>
  <g id="layer1" transform="matrix(2.127596, 0, 0, 2.127596, -817.29043, -699.657797)">
    <path id="rect1942" d=" M583.659,328.849H419.625c-19.599,0-35.487,15.888-35.487,35.487v164.015c0,19.599,15.888,35.486,35.487,35.486h164.033 c19.599,0,35.487-15.888,35.487-35.486V364.337C619.146,344.738,603.257,328.849,583.659,328.849z" style="fill: url(#gradient-0);"/>
    <linearGradient id="path1950_1_" gradientUnits="userSpaceOnUse" x1="-808.8727" y1="199.8918" x2="-860.5692" y2="49.2029" gradientTransform="matrix(-0.591433, -0.00161, 0.001985, -0.590948, -34.581903, 411.132804)">
      <stop offset="0" style="stop-color:#FFFFFF"/>
      <stop offset="1" style="stop-color:#FFFFFF;stop-opacity:0"/>
    </linearGradient>
    <path id="path1950" opacity="0.7811" enable-background="new    " d="M 557.056 338.895 L 446.227 338.895 C 416.89 338.895 393.272 362.705 393.272 392.28 L 393.272 500.407 C 394.222 523.494 397.875 508.898 404.827 483.332 C 412.908 453.619 439.223 427.65 471.272 408.187 C 495.733 393.332 523.112 383.846 572.951 382.943 C 601.216 382.432 598.721 346.26 557.056 338.895 Z" fill="url(#path1950_1_)"/>
  </g>
  <g id="layer1_1_" transform="matrix(2.127596, 0, 0, 2.127596, -449.024824, -860.542994)">
    <g id="g3019" transform="matrix(1.018827,0,0,-1.018827,170.5996,498.03288)">
      <path id="path28_1_" d="M109.495-101.774V2.533H74.828v-104.307H109.495z M92.168,16.775c12.081,0,19.612,8.01,19.612,18.021c-0.224,10.233-7.531,18.021-19.385,18.021 c-11.864,0-19.615-7.788-19.615-18.021c0-10.011,7.521-18.021,19.159-18.021H92.168L92.168,16.775z" style="fill-opacity: 0.8;"/>
      <path id="path30_1_" d="M128.681-101.774h34.673v58.249 c0,3.119,0.226,6.235,1.143,8.462c2.5,6.232,8.209,12.681,17.784,12.681c12.547,0,17.562-9.568,17.562-23.588v-55.804h34.666 v59.81c0,32.039-17.1,46.946-39.913,46.946c-18.701,0-26.915-10.45-31.476-17.571h0.234V2.533h-34.673 C129.141-7.253,128.681-101.774,128.681-101.774L128.681-101.774z" style="fill-opacity: 0.8;"/>
    </g>
  </g>
</svg>