<?xml version="1.0" encoding="utf-8"?>
<svg viewBox="0 0 500 500" xmlns="http://www.w3.org/2000/svg">
  <defs>
    <linearGradient gradientUnits="userSpaceOnUse" x1="244.26" y1="30.312" x2="244.26" y2="467.832" id="gradient-0" gradientTransform="matrix(0.999948, 0.010142, -0.004374, 0.431319, 4.928358, 263.258306)">
      <stop offset="0" style="stop-color: rgb(235, 95, 52);"/>
      <stop offset="1" style="stop-color: rgb(235, 204, 52);"/>
    </linearGradient>
  </defs>
  <rect id="Canvas" fill="#ff13dc" opacity="0" width="18" height="18" transform="matrix(1, 0, 0, 1, 233.582328, 346.135905)"/>
  <path d="M 453.125 92.52 C 459.635 92.52 465.739 93.741 471.435 96.183 C 477.133 98.624 482.096 101.96 486.329 106.191 C 490.56 110.424 493.896 115.388 496.337 121.084 C 498.78 126.781 500 132.884 500 139.395 L 500 420.645 C 500 427.155 498.78 433.259 496.337 438.955 C 493.896 444.653 490.56 449.616 486.329 453.849 C 482.096 458.08 477.133 461.416 471.435 463.858 C 465.739 466.299 459.635 467.52 453.125 467.52 L 46.875 467.52 C 40.365 467.52 34.261 466.299 28.565 463.858 C 22.867 461.416 17.904 458.08 13.672 453.849 C 9.44 449.616 6.104 444.653 3.662 438.955 C 1.221 433.259 0 427.155 0 420.645 L 0 139.395 C 0 132.884 1.221 126.781 3.662 121.084 C 6.104 115.388 9.44 110.424 13.672 106.191 C 17.904 101.96 22.867 98.624 28.565 96.183 C 34.261 93.741 40.365 92.52 46.875 92.52 L 156.25 92.52 L 156.25 61.27 C 156.25 56.875 157.064 52.806 158.691 49.063 C 160.319 45.319 162.516 42.064 165.284 39.298 C 168.05 36.53 171.386 34.251 175.292 32.461 C 179.199 30.671 183.269 29.858 187.5 30.02 L 312.5 30.02 C 316.895 30.02 320.964 30.834 324.708 32.461 C 328.45 34.089 331.706 36.286 334.472 39.053 C 337.24 41.82 339.519 45.156 341.309 49.063 C 343.099 52.969 343.912 57.039 343.75 61.27 L 343.75 92.52 L 453.125 92.52 Z M 187.5 92.52 L 312.5 92.52 L 312.5 61.27 L 187.5 61.27 L 187.5 92.52 Z M 125 123.77 L 125 436.27 L 375 436.27 L 375 123.77 L 125 123.77 Z M 31.25 420.645 C 31.25 424.876 32.796 428.539 35.889 431.631 C 38.981 434.724 42.644 436.27 46.875 436.27 L 93.75 436.27 L 93.75 123.77 L 46.875 123.77 C 42.644 123.77 38.981 125.316 35.889 128.409 C 32.796 131.501 31.25 135.164 31.25 139.395 L 31.25 420.645 Z M 468.75 139.395 C 468.75 135.164 467.204 131.501 464.111 128.409 C 461.019 125.316 457.356 123.77 453.125 123.77 L 406.25 123.77 L 406.25 436.27 L 453.125 436.27 C 457.356 436.27 461.019 434.724 464.111 431.631 C 467.204 428.539 468.75 424.876 468.75 420.645 L 468.75 139.395 Z" style="fill: url(#gradient-0);"/>
</svg>