<?xml version="1.0" encoding="utf-8"?>
<svg viewBox="0 0 500 500" xmlns="http://www.w3.org/2000/svg">
  <defs>
    <linearGradient gradientUnits="userSpaceOnUse" x1="250" y1="45" x2="250" y2="451.25" id="gradient-0" gradientTransform="matrix(0.771217, 0.636572, -0.427817, 0.518308, 170.428774, 24.10364)">
      <stop offset="0" style="stop-color: rgb(161, 31, 83);"/>
      <stop offset="1" style="stop-color: rgb(235, 95, 52);"/>
    </linearGradient>
  </defs>
  <path d="M 500 93.096 C 493.164 103.35 485.433 112.871 476.807 121.66 C 468.18 130.449 458.822 138.587 448.73 146.074 C 448.893 148.353 448.975 150.55 448.975 152.666 C 448.975 154.782 449.056 157.061 449.219 159.502 C 449.219 180.01 447.021 200.274 442.627 220.293 C 438.232 240.313 431.885 259.681 423.584 278.399 C 411.54 305.58 396.484 329.831 378.418 351.153 C 360.352 372.474 339.925 390.622 317.139 405.596 C 294.352 420.57 269.368 431.882 242.187 439.531 C 215.006 447.181 186.686 451.087 157.227 451.25 C 129.232 451.25 101.969 447.425 75.439 439.776 C 48.909 432.126 23.763 420.57 0 405.108 C 7.975 406.084 16.113 406.572 24.414 406.572 C 47.689 406.572 70.15 402.829 91.797 395.342 C 113.444 387.855 133.464 376.95 151.855 362.627 C 140.95 362.464 130.452 360.674 120.361 357.256 C 110.27 353.838 101.074 348.955 92.773 342.608 C 84.473 336.26 77.148 328.773 70.801 320.147 C 64.453 311.52 59.57 301.999 56.152 291.582 C 59.408 292.071 62.581 292.477 65.674 292.803 C 68.766 293.128 72.021 293.291 75.439 293.291 C 84.554 293.291 93.506 292.071 102.295 289.629 C 90.251 287.188 79.264 282.875 69.336 276.69 C 59.408 270.505 50.7 263.018 43.213 254.229 C 35.726 245.44 30.029 235.43 26.123 224.199 C 22.217 212.969 20.182 201.25 20.02 189.043 L 20.02 187.823 C 34.342 195.961 49.886 200.274 66.65 200.762 C 59.489 195.879 53.141 190.345 47.607 184.16 C 42.074 177.976 37.272 171.14 33.203 163.653 C 29.134 156.166 26.123 148.434 24.17 140.459 C 22.217 132.484 21.159 124.102 20.996 115.313 C 20.996 106.198 22.135 97.328 24.414 88.701 C 26.693 80.075 30.192 71.774 34.912 63.799 C 47.933 79.912 62.419 94.317 78.369 107.012 C 94.32 119.707 111.247 130.694 129.15 139.971 C 147.054 149.248 165.934 156.41 185.791 161.455 C 205.648 166.501 225.83 169.675 246.338 170.977 C 245.361 167.233 244.71 163.408 244.385 159.502 C 244.059 155.596 243.815 151.608 243.652 147.539 C 243.652 133.379 246.338 120.114 251.709 107.744 C 257.08 95.375 264.404 84.47 273.682 75.03 C 282.959 65.589 293.783 58.265 306.152 53.057 C 318.522 47.849 331.868 45.163 346.191 45 C 360.514 45 374.105 47.767 386.963 53.301 C 399.821 58.835 411.214 66.892 421.143 77.471 C 432.699 75.192 443.848 72.018 454.59 67.949 C 465.332 63.88 475.83 58.754 486.084 52.569 C 482.34 64.45 476.644 75.274 468.994 85.039 C 461.344 94.805 452.067 102.862 441.162 109.209 C 461.67 106.768 481.282 101.397 500 93.096 Z" style="fill: url(#gradient-0);"/>
</svg>