<?xml version="1.0" encoding="utf-8"?>
<svg viewBox="0 0 500 500" xmlns="http://www.w3.org/2000/svg">
  <defs>
    <linearGradient gradientUnits="userSpaceOnUse" x1="1200" y1="0" x2="1200" y2="2800" id="gradient-0" gradientTransform="matrix(0.607409, 0.794393, -0.153347, 0.117253, 32.330951, 898.315192)">
      <stop offset="0" style="stop-color: rgb(161, 31, 83);"/>
      <stop offset="1" style="stop-color: rgb(235, 95, 52);"/>
    </linearGradient>
    <linearGradient gradientUnits="userSpaceOnUse" x1="1800" y1="550" x2="1800" y2="1150" id="gradient-2" gradientTransform="matrix(0.901851, 0.432047, -0.229672, 0.479414, 339.734497, -174.41699)">
      <stop offset="0" style="stop-color: rgb(161, 31, 83);"/>
      <stop offset="1" style="stop-color: rgb(235, 95, 52);"/>
    </linearGradient>
    <linearGradient gradientUnits="userSpaceOnUse" x1="1800" y1="550" x2="1800" y2="1150" id="gradient-3" gradientTransform="matrix(0.950604, 0.310409, -0.321539, 0.984689, 357.628784, -541.127785)">
      <stop offset="0" style="stop-color: #bada55"/>
      <stop offset="1" style="stop-color: #758d29"/>
    </linearGradient>
    <linearGradient gradientUnits="userSpaceOnUse" x1="1250" y1="550" x2="1250" y2="1150" id="gradient-1" gradientTransform="matrix(0.942043, 0.335494, -0.214358, 0.601905, 217.904185, 47.630356)">
      <stop offset="0" style="stop-color: rgb(161, 31, 83);"/>
      <stop offset="1" style="stop-color: rgb(235, 95, 52);"/>
    </linearGradient>
  </defs>
  <rect id="Canvas" fill="#ff13dc" opacity="0" width="15.12" height="15.12" x="247.209" y="296.753"/>
  <g transform="matrix(0.175, 0, 0, 0.175, 51.000024, 6.000032)">
    <g>
      <g id="Layer_1-2">
        <path class="st1" d="M 500.001 0 L 0 500.001 L 0 2300.004 L 600.001 2300.004 L 600.001 2800.005 L 1100.001 2300.004 L 1500.003 2300.004 L 2400.004 1400.003 L 2400.004 0 L 500.001 0 Z M 2200.004 1300.003 L 1800.003 1700.003 L 1400.003 1700.003 L 1050.001 2050.004 L 1050.001 1700.003 L 600.001 1700.003 L 600.001 200 L 2200.004 200 L 2200.004 1300.003 Z" style="fill: url(#gradient-0);"/>
        <rect x="1700" y="550" class="st1" width="200" height="600" style="fill: url(#gradient-2); stroke: url(#gradient-3);"/>
        <rect x="1150" y="550" class="st1" width="200" height="600" style="fill: url(#gradient-1);"/>
      </g>
    </g>
  </g>
</svg>