<?xml version="1.0" encoding="utf-8"?>
<svg viewBox="0 0 500 500" xmlns="http://www.w3.org/2000/svg">
  <defs>
    <linearGradient gradientUnits="userSpaceOnUse" x1="214.286" y1="0" x2="214.286" y2="500" id="gradient-1" gradientTransform="matrix(0.999953, 0.00991, -0.009657, 0.974252, -0.79413, -2.123689)">
      <stop offset="0" style="stop-color: rgb(161, 31, 83);"/>
      <stop offset="1" style="stop-color: rgb(235, 95, 52);"/>
    </linearGradient>
  </defs>
  <path d="M 267.857 178.571 C 289.992 178.571 310.826 182.757 330.358 191.128 C 349.889 199.498 366.909 211.03 381.418 225.725 C 395.927 240.42 407.366 257.44 415.737 276.786 C 424.108 296.131 428.386 316.965 428.572 339.286 C 428.572 361.421 424.386 382.255 416.015 401.786 C 407.645 421.318 396.113 438.337 381.418 452.846 C 366.723 467.355 349.703 478.795 330.358 487.165 C 311.012 495.536 290.179 499.814 267.857 500 C 245.722 500 224.889 495.815 205.357 487.445 C 185.826 479.074 168.806 467.541 154.297 452.846 C 139.788 438.151 128.349 421.131 119.978 401.786 C 111.607 382.44 107.329 361.607 107.143 339.286 C 107.143 317.15 111.328 296.317 119.699 276.786 C 128.069 257.254 139.602 240.234 154.297 225.725 C 168.992 211.216 186.012 199.777 205.357 191.406 C 224.703 183.036 245.536 178.757 267.857 178.571 Z M 267.857 464.286 C 285.156 464.286 301.34 461.031 316.407 454.52 C 331.474 448.01 344.681 439.081 356.027 427.734 C 367.374 416.387 376.302 403.181 382.813 388.114 C 389.323 373.048 392.671 356.771 392.857 339.286 C 392.857 321.987 389.603 305.804 383.092 290.737 C 376.582 275.67 367.653 262.463 356.306 251.116 C 344.959 239.77 331.752 230.841 316.685 224.331 C 301.618 217.82 285.342 214.472 267.857 214.286 C 250.558 214.286 234.375 217.54 219.308 224.051 C 204.241 230.562 191.034 239.49 179.688 250.837 C 168.34 262.184 159.412 275.391 152.902 290.458 C 146.392 305.525 143.044 321.801 142.858 339.286 C 142.858 356.585 146.113 372.768 152.623 387.835 C 159.133 402.902 168.062 416.109 179.409 427.456 C 190.756 438.803 203.962 447.731 219.029 454.241 C 234.096 460.751 250.372 464.1 267.857 464.286 Z M 35.715 142.858 L 35.715 285.714 L 69.754 285.714 C 68.266 291.667 66.964 297.619 65.848 303.572 C 64.732 309.524 63.895 315.476 63.337 321.429 L 0 321.429 L 0 107.143 L 81.753 107.143 L 188.896 0 L 214.286 0 L 214.286 141.184 C 201.823 144.532 189.918 148.996 178.571 154.576 L 178.571 61.105 L 96.54 142.858 L 35.715 142.858 Z M 333.985 298.27 L 292.969 339.286 L 333.985 380.302 L 308.873 405.413 L 267.857 364.677 L 226.842 405.413 L 201.73 380.302 L 242.467 339.286 L 201.73 298.27 L 226.842 273.159 L 267.857 314.175 L 308.873 273.159 L 333.985 298.27 Z" style="fill: url(#gradient-1);"/>
</svg>