<?xml version="1.0" encoding="utf-8"?>
<svg viewBox="0 0 500 500" xmlns="http://www.w3.org/2000/svg">
  <defs>
    <linearGradient gradientUnits="userSpaceOnUse" x1="250.644" y1="74" x2="250.644" y2="423.433" id="gradient-0" gradientTransform="matrix(0.739017, 0.673686, -0.642908, 0.705255, 132.944196, -87.179789)">
      <stop offset="0" style="stop-color: rgb(161, 31, 83);"/>
      <stop offset="1" style="stop-color: rgb(235, 95, 52);"/>
    </linearGradient>
  </defs>
  <path d="M 488.905 128.641 C 483.081 107.103 466.278 90.237 444.74 84.476 C 415.808 73.307 135.582 67.834 54.292 84.796 C 32.754 90.621 15.888 107.423 10.127 128.961 C -2.931 186.248 -3.923 310.104 10.447 368.671 C 16.272 390.209 33.074 407.075 54.612 412.836 C 111.899 426.022 384.252 427.878 445.06 412.836 C 466.598 407.011 483.465 390.209 489.225 368.671 C 503.147 306.263 504.139 190.089 488.905 128.641 Z" style="fill: url(#gradient-0);"/>
  <path d="M 332.086 248.656 L 201.51 173.767 L 201.51 323.545 Z" style="fill-opacity: 0.73;"/>
</svg>