<?xml version="1.0" encoding="utf-8"?>
<svg viewBox="0 0 500 500" width="500" height="500" xmlns="http://www.w3.org/2000/svg" xmlns:bx="https://boxy-svg.com">
  <path style="stroke-opacity: 0.9; paint-order: fill; fill-rule: nonzero; stroke: rgba(0, 0, 0, 0); fill: rgb(255, 255, 255);" transform="matrix(0, -1, -1, 0, 60.732645, 435.400312)" d="M -30.764 -149.255 H 130.732 A 15.5 15.5 0 0 1 146.232 -133.755 V -118.193 H -30.764 V -149.255 Z" bx:shape="rect -30.764 -149.255 176.996 31.062 0 15.5 0 0 1@520cb29c"/>
  <path style="stroke-opacity: 0.9; paint-order: fill; fill-rule: nonzero; stroke: rgba(0, 0, 0, 0); fill: rgb(255, 255, 255);" d="M 32.712 288.29 H 194.208 A 15.5 15.5 0 0 1 209.708 303.79 V 319.352 H 32.712 V 288.29 Z" bx:shape="rect 32.712 288.29 176.996 31.062 0 15.5 0 0 1@700dae46"/>
  <path style="stroke-opacity: 0.9; paint-order: fill; fill-rule: nonzero; stroke: rgba(0, 0, 0, 0); fill: rgb(255, 255, 255);" transform="matrix(0, 1, -1, 0, 63.794161, 63.977858)" d="M -30.764 -149.255 H 130.732 A 15.5 15.5 0 0 1 146.232 -133.755 V -118.193 H -30.764 V -149.255 Z" bx:shape="rect -30.764 -149.255 176.996 31.062 0 15.5 0 0 1@520cb29c"/>
  <path style="stroke-opacity: 0.9; paint-order: fill; fill-rule: nonzero; stroke: rgba(0, 0, 0, 0); fill: rgb(255, 255, 255);" d="M 35.774 -211.088 H 197.27 A 15.5 15.5 0 0 1 212.77 -195.588 V -180.026 H 35.774 V -211.088 Z" transform="matrix(1, 0, 0, -1, 0, 0)" bx:shape="rect 35.774 -211.088 176.996 31.062 0 15.5 0 0 1@8d342460"/>
  <path style="stroke-opacity: 0.9; paint-order: fill; fill-rule: nonzero; stroke: rgba(0, 0, 0, 0); fill: rgb(255, 255, 255);" transform="matrix(0, -1, 1, 0, 442.481581, 435.855299)" d="M -30.764 -149.255 H 130.732 A 15.5 15.5 0 0 1 146.232 -133.755 V -118.193 H -30.764 V -149.255 Z" bx:shape="rect -30.764 -149.255 176.996 31.062 0 15.5 0 0 1@520cb29c"/>
  <path style="stroke-opacity: 0.9; paint-order: fill; fill-rule: nonzero; stroke: rgba(0, 0, 0, 0); fill: rgb(255, 255, 255);" d="M -470.502 288.745 H -309.006 A 15.5 15.5 0 0 1 -293.506 304.245 V 319.807 H -470.502 V 288.745 Z" transform="matrix(-1, 0, 0, 1, 0, 0)" bx:shape="rect -470.502 288.745 176.996 31.062 0 15.5 0 0 1@e2cc81d5"/>
  <path style="stroke-opacity: 0.9; paint-order: fill; fill-rule: nonzero; stroke: rgba(0, 0, 0, 0); fill: rgb(255, 255, 255);" transform="matrix(0, 1, 1, 0, 439.420057, 64.432856)" d="M -30.764 -149.255 H 130.732 A 15.5 15.5 0 0 1 146.232 -133.755 V -118.193 H -30.764 V -149.255 Z" bx:shape="rect -30.764 -149.255 176.996 31.062 0 15.5 0 0 1@520cb29c"/>
  <path style="stroke-opacity: 0.9; paint-order: fill; fill-rule: nonzero; stroke: rgba(0, 0, 0, 0); fill: rgb(255, 255, 255);" d="M -467.44 -211.543 H -305.944 A 15.5 15.5 0 0 1 -290.444 -196.043 V -180.481 H -467.44 V -211.543 Z" transform="matrix(-1, 0, 0, -1, 0, 0)" bx:shape="rect -467.44 -211.543 176.996 31.062 0 15.5 0 0 1@8d8fd83f"/>
  <ellipse style="stroke: rgba(0, 0, 0, 0); fill: rgb(255, 255, 255);" cx="250.038" cy="249.744" rx="24" ry="24"/>
</svg>