<?xml version="1.0" encoding="utf-8"?>
<svg viewBox="0 0 500 500" width="500" height="500" xmlns="http://www.w3.org/2000/svg" xmlns:bx="https://boxy-svg.com">
  <path style="stroke-opacity: 0.9; paint-order: fill; fill-rule: nonzero; stroke: rgba(0, 0, 0, 0); fill: rgb(255, 255, 255);" transform="matrix(0, 1, 1, 0, -116.542995, 257.526009)" d="M 30.764 149.255 H 192.26 A 15.5 15.5 0 0 1 207.76 164.755 V 180.317 H 30.764 V 149.255 Z" bx:shape="rect 30.764 149.255 176.996 31.062 0 15.5 0 0 1@5c6045e1"/>
  <path style="stroke-opacity: 0.9; paint-order: fill; fill-rule: nonzero; stroke: rgba(0, 0, 0, 0); fill: rgb(255, 255, 255);" d="M -209.988 -466.164 H -48.492 A 15.5 15.5 0 0 1 -32.992 -450.664 V -435.102 H -209.988 V -466.164 Z" transform="matrix(-1, 0, 0, -1, 0, 0)" bx:shape="rect -209.988 -466.164 176.996 31.062 0 15.5 0 0 1@10a56e38"/>
  <path style="stroke-opacity: 0.9; paint-order: fill; fill-rule: nonzero; stroke: rgba(0, 0, 0, 0); fill: rgb(255, 255, 255);" transform="matrix(0, -1, 1, 0, -113.480999, 241.851997)" d="M 30.764 149.255 H 192.26 A 15.5 15.5 0 0 1 207.76 164.755 V 180.317 H 30.764 V 149.255 Z" bx:shape="rect 30.764 149.255 176.996 31.062 0 15.5 0 0 1@5c6045e1"/>
  <path style="stroke-opacity: 0.9; paint-order: fill; fill-rule: nonzero; stroke: rgba(0, 0, 0, 0); fill: rgb(255, 255, 255);" d="M -213.049 33.214 H -51.553 A 15.5 15.5 0 0 1 -36.053 48.714 V 64.276 H -213.049 V 33.214 Z" transform="matrix(-1, 0, 0, 1, 0, 0)" bx:shape="rect -213.049 33.214 176.996 31.062 0 15.5 0 0 1@ac786591"/>
  <path style="stroke-opacity: 0.9; paint-order: fill; fill-rule: nonzero; stroke: rgba(0, 0, 0, 0); fill: rgb(255, 255, 255);" transform="matrix(0, 1, -1, 0, 619.757038, 257.980965)" d="M 30.764 149.255 H 192.26 A 15.5 15.5 0 0 1 207.76 164.755 V 180.317 H 30.764 V 149.255 Z" bx:shape="rect 30.764 149.255 176.996 31.062 0 15.5 0 0 1@5c6045e1"/>
  <path style="stroke-opacity: 0.9; paint-order: fill; fill-rule: nonzero; stroke: rgba(0, 0, 0, 0); fill: rgb(255, 255, 255);" d="M 293.227 -466.619 H 454.723 A 15.5 15.5 0 0 1 470.223 -451.119 V -435.557 H 293.227 V -466.619 Z" transform="matrix(1, 0, 0, -1, 0, 0)" bx:shape="rect 293.227 -466.619 176.996 31.062 0 15.5 0 0 1@605925b6"/>
  <path style="stroke-opacity: 0.9; paint-order: fill; fill-rule: nonzero; stroke: rgba(0, 0, 0, 0); fill: rgb(255, 255, 255);" transform="matrix(0, -1, -1, 0, 616.695026, 242.306999)" d="M 30.764 149.255 H 192.26 A 15.5 15.5 0 0 1 207.76 164.755 V 180.317 H 30.764 V 149.255 Z" bx:shape="rect 30.764 149.255 176.996 31.062 0 15.5 0 0 1@5c6045e1"/>
  <path style="stroke-opacity: 0.9; paint-order: fill; fill-rule: nonzero; stroke: rgba(0, 0, 0, 0); fill: rgb(255, 255, 255);" d="M 290.165 33.669 H 451.661 A 15.5 15.5 0 0 1 467.161 49.169 V 64.731 H 290.165 V 33.669 Z" bx:shape="rect 290.165 33.669 176.996 31.062 0 15.5 0 0 1@ce60e5f3"/>
  <ellipse style="stroke: rgba(0, 0, 0, 0); fill: rgb(255, 255, 255);" cx="250.038" cy="249.744" rx="24" ry="24"/>
</svg>