<svg xmlns="http://www.w3.org/2000/svg" viewBox="0 0 64 64" aria-labelledby="title"
aria-describedby="desc" role="img" xmlns:xlink="http://www.w3.org/1999/xlink">
  <title>Wifi</title>
  <desc>A solid styled icon from Orion Icon Library.</desc>
  <path data-name="layer2"
  d="M32 46.766a6.08 6.08 0 0 0-4.481 1.976 1 1 0 0 0 .024 1.375l3.743 3.817a1 1 0 0 0 1.427 0l3.744-3.817a1 1 0 0 0 .024-1.375A6.085 6.085 0 0 0 32 46.766zm-13.573-6.915l3.951 4.515a14.616 14.616 0 0 1 19.243 0l3.952-4.515a20.616 20.616 0 0 0-27.146 0z"
  fill="#fff"></path>
</svg>