<?xml version='1.0' encoding='UTF-8'?><!DOCTYPE svg PUBLIC "-//W3C//DTD SVG 1.1//EN" "http://www.w3.org/Graphics/SVG/1.1/DTD/svg11.dtd">
<svg xmlns:xlink="http://www.w3.org/1999/xlink" xmlns="http://www.w3.org/2000/svg" version="1.1" x="0" y="0" viewBox="0 0 18 18" preserveAspectRatio="none">
<g xmlns="http://www.w3.org/2000/svg"><path fill="#fff" fill-rule="evenodd" d="M14,0 L0,0 L0,2 L14,2 L14,0 Z M0,12 L4,12 L4,10 L0,10 L0,12 Z M11.5,5 L0,5 L0,7 L11.75,7 C12.58,7 13.25,7.67 13.25,8.5 C13.25,9.33 12.58,10 11.75,10 L9,10 L9,8 L6,11 L9,14 L9,12 L11.5,12 C13.43,12 15,10.43 15,8.5 C15,6.57 13.43,5 11.5,5 Z" transform="translate(2 3)"/>
</g>
</svg>