<?xml version='1.0' encoding='UTF-8'?><!DOCTYPE svg PUBLIC "-//W3C//DTD SVG 1.1//EN" "http://www.w3.org/Graphics/SVG/1.1/DTD/svg11.dtd">
<svg xmlns:xlink="http://www.w3.org/1999/xlink" xmlns="http://www.w3.org/2000/svg" version="1.1" x="0" y="0" viewBox="0 0 18 18" preserveAspectRatio="none">
<g xmlns="http://www.w3.org/2000/svg"><path fill="#000000" fill-rule="evenodd" d="M3,6 L1,6 L1,2 L8,2 L8,4 L3,4 L3,6 Z M10,4 L10,2 L17,2 L17,6 L15,6 L15,4 L10,4 Z M10,14 L15,14 L15,12 L17,12 L17,16 L10,16 L10,14 Z M1,12 L3,12 L3,14 L8,14 L8,16 L1,16 L1,12 Z M1,8 L5,8 L5,6 L8,9 L5,12 L5,10 L1,10 L1,8 Z M10,9 L13,6 L13,8 L17,8 L17,10 L13,10 L13,12 L10,9 Z"/>
</g>
</svg>