<?xml version='1.0' encoding='UTF-8'?><!DOCTYPE svg PUBLIC "-//W3C//DTD SVG 1.1//EN" "http://www.w3.org/Graphics/SVG/1.1/DTD/svg11.dtd">
<svg xmlns:xlink="http://www.w3.org/1999/xlink" xmlns="http://www.w3.org/2000/svg" version="1.1" x="0" y="0" viewBox="0 0 18 18" preserveAspectRatio="none">
    <g xmlns="http://www.w3.org/2000/svg"><path fill="#000000" fill-rule="evenodd" d="M13,14 L3,14 L3,11 L0,11 L0,6.00591905 C0,4.89808055 0.894513756,4 1.99406028,4 L14.0059397,4 C15.1072288,4 16,4.88655484 16,6.00591905 L16,11 L13,11 L13,14 Z M5,9 L11,9 L11,12 L5,12 L5,9 Z M3,0 L13,0 L13,3 L3,3 L3,0 Z M12,6 L14,6 L14,8 L12,8 L12,6 Z" transform="translate(1 2)"/>
    </g>
</svg>
    