<?xml version="1.0" encoding="utf-8"?>
<svg viewBox="0 0 500 500" width="500" height="500" xmlns="http://www.w3.org/2000/svg">
  <path class="a" d="M 237.698 50.586 C 304.998 50.764 367.694 84.684 404.643 140.932 L 450.193 119.587 C 452.268 118.584 454.667 118.483 456.841 119.258 C 461.393 120.858 463.766 125.859 462.167 130.406 L 462.142 130.509 L 424.543 234.33 C 423.267 237.13 420.143 238.605 417.167 237.779 L 313.295 200.181 C 308.746 198.529 306.37 193.532 308.021 188.981 L 308.046 188.93 C 308.821 186.759 310.445 185.007 312.548 184.056 L 358.519 162.508 C 290.473 69.563 147.327 85.136 100.853 190.53 C 54.38 295.928 139.429 412.098 253.949 399.648 C 296.922 394.974 335.796 371.952 360.519 336.475 C 371.593 320.727 395.544 322.85 403.669 340.301 C 407.418 348.425 406.569 357.901 401.442 365.225 C 313.195 491.37 121.478 474.673 56.354 335.179 C -5.568 202.53 91.303 50.486 237.698 50.586 Z" style="fill: #949494;"/>
</svg>