<?xml version="1.0" encoding="utf-8"?>
<svg viewBox="0 0 500 500" xmlns="http://www.w3.org/2000/svg">
  <rect id="ToDelete" fill="#eb5f34" opacity="0" width="500" height="500"/>
  <path fill="#6e6e6e" d="M 253.142 315.549 L 299.283 202.97 L 277.628 190.07 L 266.7 239.023 L 281.765 268.761 L 330.784 297.42 L 361.171 274.657 L 263.499 196.756 L 220.744 277.263 L 250.566 356.552 C 250.566 356.552 266.04 349.37 264.18 343.321 C 262.205 336.896 244.322 339.818 244.322 339.818 L 245.392 298.569 L 165.733 284.353 L 187.792 298.525 L 247.788 300.689 L 233.721 259.807 L 199.598 203.559 M 250.865 10.494 C 250.865 10.494 248.813 10.621 247.75 10.948 C 246.685 11.276 245.613 11.796 244.704 12.419 C 242.889 13.661 241.368 15.586 240.534 17.739 L 179.463 174.762 L 10.672 182.871 C 6.394 183.158 2.776 185.724 1.065 189.038 C -0.645 192.351 -0.64 196.786 1.608 200.44 C 2.26 201.456 3.128 202.417 4.067 203.173 L 135.832 308.899 L 91.195 471.966 C 90.287 475.53 91.133 479.286 93.136 481.914 C 95.139 484.541 98.537 486.353 102.219 486.42 C 104.337 486.358 106.559 485.672 108.331 484.498 L 250.021 391.785 L 391.004 483.758 C 392.783 484.919 394.977 485.597 397.1 485.64 C 400.787 485.583 404.2 483.777 406.207 481.15 C 408.215 478.522 409.063 474.761 408.155 471.187 L 364.017 308.87 L 495.926 203.01 C 499.214 200.261 500.63 196.055 500.062 192.368 C 499.495 188.681 496.88 185.097 492.912 183.468 C 491.787 183.035 490.529 182.762 489.314 182.701 L 320.536 174.762 L 261.847 17.85 C 261.028 15.664 259.511 13.716 257.684 12.45 C 255.858 11.185 253.487 10.449 251.149 10.45" style=""/>
  <path d="M 300.573 202.136 L 443.504 208.873 L 331.978 298.385 L 369.347 435.806 L 250.021 357.987 L 130.249 436.533 L 168.061 298.435 L 56.538 208.934 L 199.202 202.076 L 250.869 69.187 Z M 199.898 203.044 L 59.222 209.806 L 169.199 298.065 L 131.911 434.247 L 250.019 356.793 L 367.693 433.534 L 330.842 298.015 L 440.816 209.747 L 299.867 203.104 L 250.851 71.993 Z M 261.378 18.025 L 320.183 175.246 L 489.292 183.2 C 490.464 183.256 491.644 183.513 492.731 183.934 C 496.585 185.473 499.017 188.867 499.568 192.444 C 500.119 196.021 498.82 199.991 495.613 202.62 L 363.448 308.685 L 407.672 471.319 C 408.579 474.768 407.756 478.298 405.81 480.846 C 403.864 483.394 400.671 485.114 397.105 485.14 C 395.053 485.109 392.991 484.469 391.277 483.339 L 250.02 391.187 L 108.045 484.087 C 106.34 485.227 104.268 485.869 102.219 485.92 C 98.659 485.884 95.476 484.158 93.534 481.611 C 91.591 479.063 90.771 475.537 91.678 472.098 L 136.401 308.715 L 4.379 202.781 C 3.469 202.053 2.655 201.155 2.029 200.17 C -0.18 196.656 -0.15 192.482 1.509 189.267 C 3.169 186.052 6.555 183.609 10.696 183.371 L 179.812 175.246 L 241.004 17.909 C 241.799 15.827 243.231 14.033 244.986 12.831 C 246.742 11.629 248.933 10.943 251.159 10.95 C 253.419 10.937 255.632 11.638 257.4 12.861 C 259.167 14.085 260.599 15.91 261.378 18.025 Z M 256.83 13.684 C 255.182 12.542 253.266 11.913 251.166 11.95 C 249.094 11.918 247.188 12.536 245.551 13.656 C 243.914 14.777 242.654 16.32 241.938 18.265 L 180.626 175.911 L 180.508 176.214 L 10.744 184.369 C 6.875 184.511 3.956 186.708 2.398 189.726 C 0.84 192.743 0.74 196.394 2.871 199.63 C 3.445 200.545 4.151 201.327 5.001 201.999 L 137.283 308.14 L 137.539 308.345 L 92.642 472.362 C 91.739 475.553 92.509 478.617 94.329 481.004 C 96.149 483.392 98.897 484.944 102.213 484.92 C 104.122 484.891 105.916 484.334 107.49 483.256 L 249.746 390.172 L 250.02 389.993 L 391.823 482.501 C 393.409 483.571 395.203 484.131 397.111 484.14 C 400.435 484.176 403.191 482.626 405.015 480.239 C 406.839 477.852 407.611 474.782 406.708 471.581 L 362.312 308.315 L 494.987 201.84 C 498.03 199.449 499.096 195.954 498.58 192.596 C 498.063 189.238 495.995 186.227 492.369 184.866 C 491.357 184.468 490.336 184.244 489.248 184.199 L 319.807 176.229 L 319.477 176.214 L 260.442 18.375 C 259.741 16.4 258.478 14.825 256.83 13.684 Z" style="fill: none;"/>
  <path d="M 300.573 202.136 L 443.504 208.873 L 331.978 298.385 L 369.347 435.806 L 250.021 357.987 L 130.249 436.533 L 168.061 298.435 L 56.538 208.934 L 199.202 202.076 L 250.869 69.187 Z M 199.898 203.044 L 59.222 209.806 L 169.199 298.065 L 131.911 434.247 L 250.019 356.793 L 367.693 433.534 L 330.842 298.015 L 440.816 209.747 L 299.867 203.104 L 250.851 71.993 Z M 261.378 18.025 L 320.183 175.246 L 489.292 183.2 C 490.464 183.256 491.644 183.513 492.731 183.934 C 496.585 185.473 499.017 188.867 499.568 192.444 C 500.119 196.021 498.82 199.991 495.613 202.62 L 363.448 308.685 L 407.672 471.319 C 408.579 474.768 407.756 478.298 405.81 480.846 C 403.864 483.394 400.671 485.114 397.105 485.14 C 395.053 485.109 392.991 484.469 391.277 483.339 L 250.02 391.187 L 108.045 484.087 C 106.34 485.227 104.268 485.869 102.219 485.92 C 98.659 485.884 95.476 484.158 93.534 481.611 C 91.591 479.063 90.771 475.537 91.678 472.098 L 136.401 308.715 L 4.379 202.781 C 3.469 202.053 2.655 201.155 2.029 200.17 C -0.18 196.656 -0.15 192.482 1.509 189.267 C 3.169 186.052 6.555 183.609 10.696 183.371 L 179.812 175.246 L 241.004 17.909 C 241.799 15.827 243.231 14.033 244.986 12.831 C 246.742 11.629 248.933 10.943 251.159 10.95 C 253.419 10.937 255.632 11.638 257.4 12.861 C 259.167 14.085 260.599 15.91 261.378 18.025 Z M 256.83 13.684 C 255.182 12.542 253.266 11.913 251.166 11.95 C 249.094 11.918 247.188 12.536 245.551 13.656 C 243.914 14.777 242.654 16.32 241.938 18.265 L 180.626 175.911 L 180.508 176.214 L 10.744 184.369 C 6.875 184.511 3.956 186.708 2.398 189.726 C 0.84 192.743 0.74 196.394 2.871 199.63 C 3.445 200.545 4.151 201.327 5.001 201.999 L 137.283 308.14 L 137.539 308.345 L 92.642 472.362 C 91.739 475.553 92.509 478.617 94.329 481.004 C 96.149 483.392 98.897 484.944 102.213 484.92 C 104.122 484.891 105.916 484.334 107.49 483.256 L 249.746 390.172 L 250.02 389.993 L 391.823 482.501 C 393.409 483.571 395.203 484.131 397.111 484.14 C 400.435 484.176 403.191 482.626 405.015 480.239 C 406.839 477.852 407.611 474.782 406.708 471.581 L 362.312 308.315 L 494.987 201.84 C 498.03 199.449 499.096 195.954 498.58 192.596 C 498.063 189.238 495.995 186.227 492.369 184.866 C 491.357 184.468 490.336 184.244 489.248 184.199 L 319.807 176.229 L 319.477 176.214 L 260.442 18.375 C 259.741 16.4 258.478 14.825 256.83 13.684 Z" style="fill: none;"/>
</svg>